<svg width="700" height="450" viewBox="0 0 700 450" fill="none" xmlns="http://www.w3.org/2000/svg">
<g clip-path="url(#clip0_3_640)">
<path d="M700 0H0V449.333H700V0Z" fill="white"/>
<path d="M139.656 375.958H144.297" stroke="#BEBEBE" stroke-width="1.42264" stroke-miterlimit="10" stroke-linejoin="round"/>
<path d="M139.656 219.13H151.255" stroke="#BEBEBE" stroke-width="1.42264" stroke-miterlimit="10" stroke-linejoin="round"/>
<path d="M139.656 114.583H167.5" stroke="#BEBEBE" stroke-width="1.42264" stroke-miterlimit="10" stroke-linejoin="round"/>
<path d="M139.656 271.406H148.938" stroke="#BEBEBE" stroke-width="1.42264" stroke-miterlimit="10" stroke-linejoin="round"/>
<path d="M139.656 62.3073H666.359" stroke="#BEBEBE" stroke-width="1.42264" stroke-miterlimit="10" stroke-linejoin="round"/>
<path d="M139.656 166.854H160.536" stroke="#BEBEBE" stroke-width="1.42264" stroke-miterlimit="10" stroke-linejoin="round"/>
<path d="M139.656 323.682H144.297" stroke="#BEBEBE" stroke-width="1.42264" stroke-miterlimit="10" stroke-linejoin="round"/>
<path d="M150.458 375.958C150.458 384.177 138.135 384.177 138.135 375.958C138.135 367.74 150.458 367.74 150.458 375.958Z" fill="#4682B4" stroke="#4682B4" stroke-width="0.944881" stroke-miterlimit="10" stroke-linecap="round" stroke-linejoin="round"/>
<path d="M157.422 219.13C157.422 227.349 145.094 227.349 145.094 219.13C145.094 210.917 157.422 210.917 157.422 219.13Z" fill="#4682B4" stroke="#4682B4" stroke-width="0.944881" stroke-miterlimit="10" stroke-linecap="round" stroke-linejoin="round"/>
<path d="M173.661 114.583C173.661 122.797 161.333 122.797 161.333 114.583C161.333 106.365 173.661 106.365 173.661 114.583Z" fill="#4682B4" stroke="#4682B4" stroke-width="0.944881" stroke-miterlimit="10" stroke-linecap="round" stroke-linejoin="round"/>
<path d="M155.099 271.406C155.099 279.625 142.776 279.625 142.776 271.406C142.776 263.193 155.099 263.193 155.099 271.406Z" fill="#4682B4" stroke="#4682B4" stroke-width="0.944881" stroke-miterlimit="10" stroke-linecap="round" stroke-linejoin="round"/>
<path d="M672.521 62.3073C672.521 70.5208 660.198 70.5208 660.198 62.3073C660.198 54.0885 672.521 54.0885 672.521 62.3073Z" fill="#4682B4" stroke="#4682B4" stroke-width="0.944881" stroke-miterlimit="10" stroke-linecap="round" stroke-linejoin="round"/>
<path d="M166.703 166.854C166.703 175.073 154.375 175.073 154.375 166.854C154.375 158.641 166.703 158.641 166.703 166.854Z" fill="#4682B4" stroke="#4682B4" stroke-width="0.944881" stroke-miterlimit="10" stroke-linecap="round" stroke-linejoin="round"/>
<path d="M150.458 323.682C150.458 331.901 138.135 331.901 138.135 323.682C138.135 315.464 150.458 315.464 150.458 323.682Z" fill="#4682B4" stroke="#4682B4" stroke-width="0.944881" stroke-miterlimit="10" stroke-linecap="round" stroke-linejoin="round"/>
<path d="M81.9583 376.729L80.6875 373L79.3333 376.729H81.9583ZM80.0833 371.75H81.375L84.4375 380.167H83.1875L82.3333 377.646H79L78.0833 380.167H76.9166L80.0833 371.75Z" fill="#4D4D4D"/>
<path d="M85.5968 373.104C85.6073 372.677 85.6802 372.365 85.8052 372.167C86.0552 371.807 86.5187 371.625 87.201 371.625C87.2687 371.625 87.3364 371.635 87.4093 371.646C87.4771 371.646 87.5552 371.646 87.6385 371.646V372.604C87.5239 372.594 87.451 372.583 87.4093 372.583C87.3677 372.583 87.3156 372.583 87.2635 372.583C86.9562 372.583 86.7687 372.667 86.701 372.833C86.6437 372.99 86.6177 373.396 86.6177 374.063H87.6385V374.875H86.6177V380.167H85.5968V374.875H84.7427V374.063H85.5968V373.104Z" fill="#4D4D4D"/>
<path d="M88.6276 374.042H89.6067V375.083C89.6744 374.891 89.8671 374.646 90.1901 374.354C90.5078 374.052 90.8671 373.896 91.2734 373.896C91.2838 373.896 91.3151 373.906 91.3567 373.917C91.4088 373.917 91.4921 373.917 91.6067 373.917V375.021C91.5338 375.01 91.4713 375 91.4192 375C91.3776 374.99 91.3255 374.979 91.2734 374.979C90.7421 374.979 90.3411 375.146 90.0651 375.479C89.7838 375.813 89.6484 376.203 89.6484 376.646V380.167H88.6276V374.042Z" fill="#4D4D4D"/>
<path d="M92.4932 374.063H93.5557V380.167H92.4932V374.063ZM92.4932 371.75H93.5557V372.917H92.4932V371.75Z" fill="#4D4D4D"/>
<path d="M97.475 373.854C98.1677 373.854 98.7302 374.021 99.1625 374.354C99.5895 374.687 99.85 375.271 99.9333 376.104H98.9333C98.876 375.719 98.7354 375.396 98.5166 375.146C98.2927 374.896 97.9437 374.771 97.475 374.771C96.8187 374.771 96.35 375.099 96.0583 375.75C95.876 376.156 95.7875 376.661 95.7875 377.271C95.7875 377.896 95.9125 378.417 96.1625 378.833C96.4229 379.25 96.8395 379.458 97.4125 379.458C97.8291 379.458 98.1625 379.333 98.4125 379.083C98.6625 378.823 98.8343 378.458 98.9333 378H99.9333C99.8187 378.807 99.5375 379.406 99.0791 379.792C98.6208 380.167 98.0375 380.354 97.3291 380.354C96.5218 380.354 95.876 380.062 95.3916 379.479C94.9177 378.885 94.6833 378.146 94.6833 377.271C94.6833 376.187 94.9437 375.349 95.475 374.75C96.001 374.156 96.6677 373.854 97.475 373.854Z" fill="#4D4D4D"/>
<path d="M101.758 378.542C101.758 378.833 101.868 379.073 102.092 379.25C102.31 379.417 102.571 379.5 102.862 379.5C103.222 379.5 103.576 379.417 103.925 379.25C104.493 378.974 104.779 378.516 104.779 377.875V377.042C104.654 377.125 104.487 377.198 104.279 377.25C104.081 377.307 103.889 377.344 103.696 377.354L103.071 377.438C102.706 377.495 102.43 377.573 102.237 377.667C101.915 377.849 101.758 378.141 101.758 378.542ZM104.258 376.458C104.493 376.417 104.654 376.313 104.737 376.146C104.779 376.063 104.8 375.932 104.8 375.75C104.8 375.406 104.675 375.156 104.425 375C104.175 374.833 103.821 374.75 103.362 374.75C102.821 374.75 102.435 374.896 102.217 375.188C102.092 375.354 102.008 375.594 101.967 375.896H101.008C101.019 375.146 101.264 374.625 101.737 374.333C102.206 374.031 102.758 373.875 103.383 373.875C104.102 373.875 104.685 374.016 105.133 374.292C105.576 374.573 105.8 375 105.8 375.583V379.104C105.8 379.219 105.821 379.307 105.862 379.375C105.915 379.432 106.014 379.458 106.154 379.458C106.196 379.458 106.243 379.458 106.3 379.458C106.352 379.458 106.415 379.453 106.487 379.438V380.188C106.321 380.24 106.196 380.271 106.112 380.271C106.029 380.281 105.915 380.292 105.779 380.292C105.415 380.292 105.159 380.167 105.008 379.917C104.925 379.792 104.862 379.604 104.821 379.354C104.612 379.635 104.31 379.875 103.925 380.083C103.534 380.276 103.097 380.375 102.612 380.375C102.04 380.375 101.576 380.198 101.217 379.854C100.868 379.51 100.696 379.078 100.696 378.563C100.696 377.995 100.868 377.557 101.217 377.25C101.576 376.932 102.04 376.729 102.612 376.646L104.258 376.458Z" fill="#4D4D4D"/>
<path d="M31.4375 325.182C31.4635 325.656 31.5729 326.047 31.7708 326.349C32.1458 326.906 32.8125 327.182 33.7708 327.182C34.1979 327.182 34.5885 327.12 34.9375 326.995C35.6146 326.76 35.9583 326.339 35.9583 325.724C35.9583 325.266 35.8125 324.943 35.5208 324.745C35.2292 324.552 34.776 324.385 34.1667 324.245L33.0208 323.995C32.2708 323.818 31.7396 323.63 31.4375 323.432C30.9063 323.089 30.6458 322.557 30.6458 321.849C30.6458 321.099 30.901 320.484 31.4167 319.995C31.9427 319.51 32.6875 319.266 33.6458 319.266C34.5313 319.266 35.2813 319.484 35.8958 319.911C36.5052 320.328 36.8125 321.01 36.8125 321.953H35.75C35.6927 321.495 35.5677 321.151 35.375 320.911C35.026 320.469 34.4375 320.245 33.6042 320.245C32.9375 320.245 32.4583 320.391 32.1667 320.682C31.875 320.964 31.7292 321.286 31.7292 321.661C31.7292 322.078 31.8958 322.38 32.2292 322.557C32.4635 322.682 32.9792 322.839 33.7708 323.016L34.9375 323.286C35.5052 323.427 35.9479 323.609 36.2708 323.828C36.7969 324.219 37.0625 324.786 37.0625 325.536C37.0625 326.469 36.7188 327.135 36.0417 327.536C35.375 327.938 34.5885 328.141 33.6875 328.141C32.6458 328.141 31.8229 327.87 31.2292 327.328C30.6302 326.802 30.3385 326.089 30.3542 325.182H31.4375Z" fill="#4D4D4D"/>
<path d="M40.8052 327.224C41.4823 327.224 41.951 326.969 42.201 326.453C42.4615 325.943 42.5969 325.365 42.5969 324.724C42.5969 324.156 42.5031 323.693 42.326 323.328C42.0344 322.76 41.5344 322.474 40.826 322.474C40.1854 322.474 39.7219 322.719 39.4302 323.203C39.149 323.677 39.0135 324.255 39.0135 324.932C39.0135 325.589 39.149 326.135 39.4302 326.578C39.7219 327.01 40.1802 327.224 40.8052 327.224ZM40.8469 321.578C41.6385 321.578 42.3052 321.844 42.8469 322.37C43.399 322.901 43.6802 323.677 43.6802 324.703C43.6802 325.693 43.4354 326.51 42.951 327.161C42.4615 327.802 41.7115 328.12 40.701 328.12C39.8677 328.12 39.201 327.839 38.701 327.266C38.201 326.698 37.951 325.927 37.951 324.953C37.951 323.927 38.2115 323.109 38.7427 322.495C39.2688 321.885 39.9719 321.578 40.8469 321.578Z" fill="#4D4D4D"/>
<path d="M45.9349 321.766V325.828C45.9349 326.151 45.9818 326.406 46.0807 326.599C46.2578 326.964 46.6015 327.141 47.1015 327.141C47.8203 327.141 48.3099 326.823 48.5599 326.182C48.7109 325.839 48.789 325.365 48.789 324.766V321.766H49.8099V327.891H48.8307L48.8515 326.995C48.7109 327.219 48.5443 327.411 48.3515 327.578C47.9609 327.896 47.4818 328.057 46.914 328.057C46.039 328.057 45.4453 327.766 45.1432 327.182C44.9609 326.865 44.8724 326.448 44.8724 325.932V321.766H45.9349Z" fill="#4D4D4D"/>
<path d="M51.6271 320.036H52.6688V321.766H53.6479V322.599H52.6688V326.599C52.6688 326.823 52.7417 326.969 52.8979 327.036C52.9656 327.078 53.0958 327.099 53.2938 327.099C53.3354 327.099 53.3823 327.099 53.4396 327.099C53.5073 327.099 53.575 327.094 53.6479 327.078V327.891C53.5333 327.917 53.4083 327.938 53.2729 327.953C53.1479 327.979 53.0125 327.995 52.8771 327.995C52.3875 327.995 52.0542 327.87 51.8771 327.62C51.7104 327.37 51.6271 327.052 51.6271 326.661V322.599H50.7938V321.766H51.6271V320.036Z" fill="#4D4D4D"/>
<path d="M54.6786 319.453H55.7203V322.578C55.9547 322.276 56.1682 322.057 56.3661 321.932C56.6995 321.714 57.1161 321.599 57.6161 321.599C58.5016 321.599 59.1057 321.911 59.4287 322.536C59.5953 322.885 59.6787 323.359 59.6787 323.953V327.891H58.6162V324.016C58.6162 323.573 58.5589 323.245 58.4495 323.036C58.2672 322.703 57.9182 322.536 57.4078 322.536C56.9755 322.536 56.5849 322.682 56.2411 322.974C55.8922 323.266 55.7203 323.823 55.7203 324.641V327.891H54.6786V319.453Z" fill="#4D4D4D"/>
<path d="M68.9224 324.453L67.6516 320.724L66.2974 324.453H68.9224ZM67.0474 319.474H68.3391L71.4016 327.891H70.1516L69.2974 325.37H65.9641L65.0474 327.891H63.8807L67.0474 319.474Z" fill="#4D4D4D"/>
<path d="M72.2901 321.766H73.3109V322.62C73.5609 322.328 73.7797 322.115 73.9776 321.974C74.3214 321.74 74.712 321.62 75.1443 321.62C75.6286 321.62 76.0193 321.74 76.3109 321.974C76.4776 322.115 76.6286 322.318 76.7693 322.578C77.0036 322.26 77.2745 322.026 77.5818 321.87C77.8838 321.703 78.2328 321.62 78.6234 321.62C79.4411 321.62 80.0036 321.922 80.3109 322.516C80.462 322.839 80.5401 323.266 80.5401 323.807V327.891H79.4776V323.62C79.4776 323.219 79.3734 322.943 79.1651 322.786C78.9672 322.635 78.7172 322.557 78.4151 322.557C78.0088 322.557 77.6651 322.698 77.3734 322.974C77.0818 323.24 76.9359 323.693 76.9359 324.328V327.891H75.8943V323.891C75.8943 323.474 75.8422 323.172 75.7484 322.974C75.5922 322.698 75.3005 322.557 74.8734 322.557C74.4828 322.557 74.1286 322.714 73.8109 323.016C73.488 323.307 73.3318 323.849 73.3318 324.641V327.891H72.2901V321.766Z" fill="#4D4D4D"/>
<path d="M84.6265 321.62C85.0536 321.62 85.4703 321.724 85.8765 321.932C86.2932 322.13 86.6057 322.391 86.814 322.724C87.0224 323.031 87.1578 323.391 87.2307 323.807C87.2984 324.089 87.3349 324.536 87.3349 325.161H82.8349C82.8453 325.776 82.9911 326.276 83.2724 326.661C83.5484 327.036 83.9703 327.224 84.5432 327.224C85.0849 327.224 85.512 327.047 85.8349 326.682C86.012 326.474 86.1474 326.24 86.2307 325.974H87.2515C87.2203 326.198 87.1318 326.448 86.9807 326.724C86.8245 327.005 86.6526 327.224 86.4599 327.391C86.1526 327.698 85.7724 327.901 85.314 328.016C85.064 328.068 84.7776 328.099 84.4599 328.099C83.6943 328.099 83.0484 327.823 82.5224 327.266C81.9911 326.714 81.7307 325.932 81.7307 324.932C81.7307 323.964 81.9911 323.172 82.5224 322.557C83.064 321.932 83.762 321.62 84.6265 321.62ZM86.2724 324.328C86.2307 323.885 86.1318 323.531 85.9807 323.266C85.689 322.766 85.2151 322.516 84.564 322.516C84.0901 322.516 83.6943 322.693 83.3765 323.036C83.0536 323.37 82.8818 323.802 82.8557 324.328H86.2724Z" fill="#4D4D4D"/>
<path d="M88.6312 321.766H89.6104V322.807C89.6781 322.615 89.8708 322.37 90.1937 322.078C90.5114 321.776 90.8708 321.62 91.2771 321.62C91.2875 321.62 91.3187 321.63 91.3604 321.641C91.4125 321.641 91.4958 321.641 91.6104 321.641V322.745C91.5375 322.734 91.475 322.724 91.4229 322.724C91.3812 322.714 91.3291 322.703 91.2771 322.703C90.7458 322.703 90.3448 322.87 90.0687 323.203C89.7875 323.536 89.6521 323.927 89.6521 324.37V327.891H88.6312V321.766Z" fill="#4D4D4D"/>
<path d="M92.4969 321.786H93.5594V327.891H92.4969V321.786ZM92.4969 319.474H93.5594V320.641H92.4969V319.474Z" fill="#4D4D4D"/>
<path d="M97.4787 321.578C98.1714 321.578 98.7339 321.745 99.1662 322.078C99.5933 322.411 99.8537 322.995 99.937 323.828H98.937C98.8797 323.443 98.7391 323.12 98.5203 322.87C98.2964 322.62 97.9474 322.495 97.4787 322.495C96.8224 322.495 96.3537 322.823 96.062 323.474C95.8797 323.88 95.7912 324.385 95.7912 324.995C95.7912 325.62 95.9162 326.141 96.1662 326.557C96.4266 326.974 96.8433 327.182 97.4162 327.182C97.8328 327.182 98.1662 327.057 98.4162 326.807C98.6662 326.547 98.8381 326.182 98.937 325.724H99.937C99.8224 326.531 99.5412 327.13 99.0828 327.516C98.6245 327.891 98.0412 328.078 97.3328 328.078C96.5256 328.078 95.8797 327.786 95.3953 327.203C94.9214 326.609 94.687 325.87 94.687 324.995C94.687 323.911 94.9474 323.073 95.4787 322.474C96.0047 321.88 96.6714 321.578 97.4787 321.578Z" fill="#4D4D4D"/>
<path d="M101.762 326.266C101.762 326.557 101.871 326.797 102.095 326.974C102.314 327.141 102.574 327.224 102.866 327.224C103.226 327.224 103.58 327.141 103.929 326.974C104.496 326.698 104.783 326.24 104.783 325.599V324.766C104.658 324.849 104.491 324.922 104.283 324.974C104.085 325.031 103.892 325.068 103.699 325.078L103.074 325.161C102.71 325.219 102.434 325.297 102.241 325.391C101.918 325.573 101.762 325.865 101.762 326.266ZM104.262 324.182C104.496 324.141 104.658 324.036 104.741 323.87C104.783 323.786 104.804 323.656 104.804 323.474C104.804 323.13 104.679 322.88 104.429 322.724C104.179 322.557 103.824 322.474 103.366 322.474C102.824 322.474 102.439 322.62 102.22 322.911C102.095 323.078 102.012 323.318 101.97 323.62H101.012C101.022 322.87 101.267 322.349 101.741 322.057C102.21 321.755 102.762 321.599 103.387 321.599C104.106 321.599 104.689 321.74 105.137 322.016C105.58 322.297 105.804 322.724 105.804 323.307V326.828C105.804 326.943 105.824 327.031 105.866 327.099C105.918 327.156 106.017 327.182 106.158 327.182C106.199 327.182 106.246 327.182 106.304 327.182C106.356 327.182 106.418 327.177 106.491 327.161V327.911C106.324 327.964 106.199 327.995 106.116 327.995C106.033 328.005 105.918 328.016 105.783 328.016C105.418 328.016 105.163 327.891 105.012 327.641C104.929 327.516 104.866 327.328 104.824 327.078C104.616 327.359 104.314 327.599 103.929 327.807C103.538 328 103.101 328.099 102.616 328.099C102.043 328.099 101.58 327.922 101.22 327.578C100.871 327.234 100.699 326.802 100.699 326.286C100.699 325.719 100.871 325.281 101.22 324.974C101.58 324.656 102.043 324.453 102.616 324.37L104.262 324.182Z" fill="#4D4D4D"/>
<path d="M25.7135 267.198H26.8802V275.615H25.7135V267.198Z" fill="#4D4D4D"/>
<path d="M28.5776 269.49H29.5567V270.344C29.8484 270 30.1505 269.75 30.4734 269.594C30.8067 269.427 31.1713 269.344 31.5776 269.344C32.437 269.344 33.0203 269.651 33.3276 270.26C33.4942 270.594 33.5776 271.068 33.5776 271.677V275.615H32.5359V271.74C32.5359 271.38 32.4786 271.083 32.3692 270.844C32.187 270.469 31.8536 270.281 31.3692 270.281C31.1297 270.281 30.9317 270.302 30.7651 270.344C30.4838 270.427 30.2442 270.594 30.0359 270.844C29.8536 271.052 29.7338 271.271 29.6817 271.49C29.6401 271.698 29.6192 272.005 29.6192 272.406V275.615H28.5776V269.49Z" fill="#4D4D4D"/>
<path d="M35.7281 273.698C35.7541 274.031 35.8375 274.297 35.9781 274.49C36.2385 274.812 36.6916 274.969 37.3323 274.969C37.7073 274.969 38.0406 274.896 38.3323 274.74C38.6239 274.573 38.7698 274.318 38.7698 273.969C38.7698 273.708 38.65 273.505 38.4156 273.365C38.275 273.281 37.9833 273.187 37.5406 273.073L36.7281 272.865C36.1968 272.729 35.8114 272.583 35.5614 272.427C35.1135 272.151 34.8948 271.76 34.8948 271.26C34.8948 270.693 35.1031 270.229 35.5198 269.865C35.9468 269.505 36.5093 269.323 37.2073 269.323C38.1343 269.323 38.801 269.594 39.2073 270.135C39.4677 270.484 39.5927 270.854 39.5823 271.24H38.6239C38.5927 271.005 38.5093 270.797 38.3739 270.615C38.1343 270.339 37.7281 270.198 37.1448 270.198C36.7541 270.198 36.4573 270.276 36.2489 270.427C36.051 270.583 35.9573 270.776 35.9573 271.01C35.9573 271.276 36.0875 271.49 36.3531 271.656C36.5041 271.755 36.7281 271.839 37.0198 271.906L37.7073 272.073C38.4416 272.255 38.9364 272.427 39.1864 272.594C39.5875 272.859 39.7906 273.276 39.7906 273.844C39.7906 274.385 39.5823 274.859 39.1656 275.26C38.7593 275.646 38.1291 275.844 37.2698 275.844C36.3635 275.844 35.7177 275.641 35.3323 275.24C34.9573 274.823 34.7541 274.312 34.7281 273.698H35.7281Z" fill="#4D4D4D"/>
<path d="M42.0114 269.49V273.552C42.0114 273.875 42.0583 274.13 42.1572 274.323C42.3343 274.688 42.6781 274.865 43.1781 274.865C43.8968 274.865 44.3864 274.547 44.6364 273.906C44.7875 273.563 44.8656 273.089 44.8656 272.49V269.49H45.8864V275.615H44.9072L44.9281 274.719C44.7875 274.943 44.6208 275.135 44.4281 275.302C44.0375 275.62 43.5583 275.781 42.9906 275.781C42.1156 275.781 41.5218 275.49 41.2197 274.906C41.0375 274.589 40.9489 274.172 40.9489 273.656V269.49H42.0114Z" fill="#4D4D4D"/>
<path d="M47.5369 267.198H48.5578V275.615H47.5369V267.198Z" fill="#4D4D4D"/>
<path d="M50.8937 273.99C50.8937 274.281 51.0031 274.521 51.227 274.698C51.4458 274.865 51.7062 274.948 51.9978 274.948C52.3572 274.948 52.7114 274.865 53.0603 274.698C53.6281 274.422 53.9145 273.964 53.9145 273.323V272.49C53.7895 272.573 53.6228 272.646 53.4145 272.698C53.2166 272.755 53.0239 272.792 52.8312 272.802L52.2062 272.885C51.8416 272.943 51.5656 273.021 51.3728 273.115C51.0499 273.297 50.8937 273.589 50.8937 273.99ZM53.3937 271.906C53.6281 271.865 53.7895 271.76 53.8728 271.594C53.9145 271.51 53.9353 271.38 53.9353 271.198C53.9353 270.854 53.8103 270.604 53.5603 270.448C53.3103 270.281 52.9562 270.198 52.4978 270.198C51.9562 270.198 51.5708 270.344 51.352 270.635C51.227 270.802 51.1437 271.042 51.102 271.344H50.1437C50.1541 270.594 50.3989 270.073 50.8728 269.781C51.3416 269.479 51.8937 269.323 52.5187 269.323C53.2374 269.323 53.8208 269.464 54.2687 269.74C54.7114 270.021 54.9353 270.448 54.9353 271.031V274.552C54.9353 274.667 54.9562 274.755 54.9978 274.823C55.0499 274.88 55.1489 274.906 55.2895 274.906C55.3312 274.906 55.3781 274.906 55.4353 274.906C55.4874 274.906 55.5499 274.901 55.6228 274.885V275.635C55.4562 275.687 55.3312 275.719 55.2478 275.719C55.1645 275.729 55.0499 275.74 54.9145 275.74C54.5499 275.74 54.2947 275.615 54.1437 275.365C54.0603 275.24 53.9978 275.052 53.9562 274.802C53.7478 275.083 53.4458 275.323 53.0603 275.531C52.6697 275.724 52.2322 275.823 51.7478 275.823C51.1749 275.823 50.7114 275.646 50.352 275.302C50.0031 274.958 49.8312 274.526 49.8312 274.01C49.8312 273.443 50.0031 273.005 50.352 272.698C50.7114 272.38 51.1749 272.177 51.7478 272.094L53.3937 271.906Z" fill="#4D4D4D"/>
<path d="M56.6693 269.49H57.6484V270.531C57.7161 270.339 57.9088 270.094 58.2318 269.802C58.5495 269.5 58.9088 269.344 59.3151 269.344C59.3255 269.344 59.3568 269.354 59.3984 269.365C59.4505 269.365 59.5338 269.365 59.6484 269.365V270.469C59.5755 270.458 59.513 270.448 59.4609 270.448C59.4193 270.438 59.3672 270.427 59.3151 270.427C58.7838 270.427 58.3828 270.594 58.1068 270.927C57.8255 271.26 57.6901 271.651 57.6901 272.094V275.615H56.6693V269.49Z" fill="#4D4D4D"/>
<path d="M67.5656 266.969C69.0499 266.969 70.1541 267.448 70.8781 268.406C71.4301 269.156 71.7114 270.109 71.7114 271.26C71.7114 272.526 71.3885 273.568 70.7531 274.385C70.0031 275.375 68.9301 275.865 67.5447 275.865C66.2531 275.865 65.2374 275.438 64.5031 274.573C63.8364 273.755 63.5031 272.714 63.5031 271.448C63.5031 270.313 63.7843 269.339 64.3572 268.531C65.076 267.49 66.1489 266.969 67.5656 266.969ZM67.6906 274.844C68.6906 274.844 69.4093 274.484 69.8572 273.76C70.3156 273.042 70.5447 272.214 70.5447 271.281C70.5447 270.297 70.2791 269.505 69.7531 268.906C69.2374 268.297 68.5291 267.99 67.6281 267.99C66.7635 267.99 66.0551 268.292 65.5031 268.885C64.9614 269.484 64.6906 270.365 64.6906 271.531C64.6906 272.464 64.9249 273.25 65.3989 273.885C65.8676 274.526 66.6333 274.844 67.6906 274.844Z" fill="#4D4D4D"/>
<path d="M75.2963 269.302C75.989 269.302 76.5515 269.469 76.9838 269.802C77.4109 270.135 77.6713 270.719 77.7546 271.552H76.7546C76.6973 271.167 76.5567 270.844 76.338 270.594C76.114 270.344 75.7651 270.219 75.2963 270.219C74.6401 270.219 74.1713 270.547 73.8796 271.198C73.6973 271.604 73.6088 272.109 73.6088 272.719C73.6088 273.344 73.7338 273.865 73.9838 274.281C74.2442 274.698 74.6609 274.906 75.2338 274.906C75.6505 274.906 75.9838 274.781 76.2338 274.531C76.4838 274.271 76.6557 273.906 76.7546 273.448H77.7546C77.6401 274.255 77.3588 274.854 76.9005 275.24C76.4421 275.615 75.8588 275.802 75.1505 275.802C74.3432 275.802 73.6973 275.51 73.213 274.927C72.739 274.333 72.5046 273.594 72.5046 272.719C72.5046 271.635 72.7651 270.797 73.2963 270.198C73.8223 269.604 74.489 269.302 75.2963 269.302Z" fill="#4D4D4D"/>
<path d="M81.3505 269.344C81.7776 269.344 82.1942 269.448 82.6005 269.656C83.0172 269.854 83.3297 270.115 83.538 270.448C83.7463 270.755 83.8817 271.115 83.9547 271.531C84.0224 271.813 84.0588 272.26 84.0588 272.885H79.5588C79.5692 273.5 79.7151 274 79.9963 274.385C80.2724 274.76 80.6942 274.948 81.2672 274.948C81.8088 274.948 82.2359 274.771 82.5588 274.406C82.7359 274.198 82.8713 273.964 82.9547 273.698H83.9755C83.9442 273.922 83.8557 274.172 83.7047 274.448C83.5484 274.729 83.3765 274.948 83.1838 275.115C82.8765 275.422 82.4963 275.625 82.038 275.74C81.788 275.792 81.5015 275.823 81.1838 275.823C80.4182 275.823 79.7724 275.547 79.2463 274.99C78.7151 274.438 78.4547 273.656 78.4547 272.656C78.4547 271.688 78.7151 270.896 79.2463 270.281C79.788 269.656 80.4859 269.344 81.3505 269.344ZM82.9963 272.052C82.9547 271.609 82.8557 271.255 82.7047 270.99C82.413 270.49 81.939 270.24 81.288 270.24C80.814 270.24 80.4182 270.417 80.1005 270.76C79.7776 271.094 79.6057 271.526 79.5797 272.052H82.9963Z" fill="#4D4D4D"/>
<path d="M86.1052 273.99C86.1052 274.281 86.2145 274.521 86.4385 274.698C86.6572 274.865 86.9177 274.948 87.2093 274.948C87.5687 274.948 87.9229 274.865 88.2718 274.698C88.8395 274.422 89.126 273.964 89.126 273.323V272.49C89.001 272.573 88.8343 272.646 88.626 272.698C88.4281 272.755 88.2354 272.792 88.0427 272.802L87.4177 272.885C87.0531 272.943 86.777 273.021 86.5843 273.115C86.2614 273.297 86.1052 273.589 86.1052 273.99ZM88.6052 271.906C88.8395 271.865 89.001 271.76 89.0843 271.594C89.126 271.51 89.1468 271.38 89.1468 271.198C89.1468 270.854 89.0218 270.604 88.7718 270.448C88.5218 270.281 88.1677 270.198 87.7093 270.198C87.1677 270.198 86.7822 270.344 86.5635 270.635C86.4385 270.802 86.3552 271.042 86.3135 271.344H85.3552C85.3656 270.594 85.6104 270.073 86.0843 269.781C86.5531 269.479 87.1052 269.323 87.7302 269.323C88.4489 269.323 89.0322 269.464 89.4802 269.74C89.9229 270.021 90.1468 270.448 90.1468 271.031V274.552C90.1468 274.667 90.1677 274.755 90.2093 274.823C90.2614 274.88 90.3604 274.906 90.501 274.906C90.5427 274.906 90.5895 274.906 90.6468 274.906C90.6989 274.906 90.7614 274.901 90.8343 274.885V275.635C90.6677 275.687 90.5427 275.719 90.4593 275.719C90.376 275.729 90.2614 275.74 90.126 275.74C89.7614 275.74 89.5062 275.615 89.3552 275.365C89.2718 275.24 89.2093 275.052 89.1677 274.802C88.9593 275.083 88.6572 275.323 88.2718 275.531C87.8812 275.724 87.4437 275.823 86.9593 275.823C86.3864 275.823 85.9229 275.646 85.5635 275.302C85.2145 274.958 85.0427 274.526 85.0427 274.01C85.0427 273.443 85.2145 273.005 85.5635 272.698C85.9229 272.38 86.3864 272.177 86.9593 272.094L88.6052 271.906Z" fill="#4D4D4D"/>
<path d="M91.839 269.49H92.8182V270.344C93.1098 270 93.4119 269.75 93.7348 269.594C94.0682 269.427 94.4327 269.344 94.839 269.344C95.6984 269.344 96.2817 269.651 96.589 270.26C96.7557 270.594 96.839 271.068 96.839 271.677V275.615H95.7973V271.74C95.7973 271.38 95.74 271.083 95.6307 270.844C95.4484 270.469 95.115 270.281 94.6307 270.281C94.3911 270.281 94.1932 270.302 94.0265 270.344C93.7452 270.427 93.5057 270.594 93.2973 270.844C93.115 271.052 92.9952 271.271 92.9432 271.49C92.9015 271.698 92.8807 272.005 92.8807 272.406V275.615H91.839V269.49Z" fill="#4D4D4D"/>
<path d="M98.3646 269.51H99.4271V275.615H98.3646V269.51ZM98.3646 267.198H99.4271V268.365H98.3646V267.198Z" fill="#4D4D4D"/>
<path d="M101.763 273.99C101.763 274.281 101.872 274.521 102.096 274.698C102.315 274.865 102.576 274.948 102.867 274.948C103.227 274.948 103.581 274.865 103.93 274.698C104.497 274.422 104.784 273.964 104.784 273.323V272.49C104.659 272.573 104.492 272.646 104.284 272.698C104.086 272.755 103.893 272.792 103.701 272.802L103.076 272.885C102.711 272.943 102.435 273.021 102.242 273.115C101.919 273.297 101.763 273.589 101.763 273.99ZM104.263 271.906C104.497 271.865 104.659 271.76 104.742 271.594C104.784 271.51 104.805 271.38 104.805 271.198C104.805 270.854 104.68 270.604 104.43 270.448C104.18 270.281 103.826 270.198 103.367 270.198C102.826 270.198 102.44 270.344 102.221 270.635C102.096 270.802 102.013 271.042 101.971 271.344H101.013C101.023 270.594 101.268 270.073 101.742 269.781C102.211 269.479 102.763 269.323 103.388 269.323C104.107 269.323 104.69 269.464 105.138 269.74C105.581 270.021 105.805 270.448 105.805 271.031V274.552C105.805 274.667 105.826 274.755 105.867 274.823C105.919 274.88 106.018 274.906 106.159 274.906C106.201 274.906 106.247 274.906 106.305 274.906C106.357 274.906 106.419 274.901 106.492 274.885V275.635C106.326 275.687 106.201 275.719 106.117 275.719C106.034 275.729 105.919 275.74 105.784 275.74C105.419 275.74 105.164 275.615 105.013 275.365C104.93 275.24 104.867 275.052 104.826 274.802C104.617 275.083 104.315 275.323 103.93 275.531C103.539 275.724 103.102 275.823 102.617 275.823C102.044 275.823 101.581 275.646 101.221 275.302C100.872 274.958 100.701 274.526 100.701 274.01C100.701 273.443 100.872 273.005 101.221 272.698C101.581 272.38 102.044 272.177 102.617 272.094L104.263 271.906Z" fill="#4D4D4D"/>
<path d="M89.1302 219.901L87.8593 216.172L86.5052 219.901H89.1302ZM87.2552 214.922H88.5468L91.6093 223.339H90.3593L89.5052 220.818H86.1718L85.2552 223.339H84.0885L87.2552 214.922Z" fill="#4D4D4D"/>
<path d="M93.1229 221.422C93.1489 221.755 93.2322 222.021 93.3729 222.214C93.6333 222.536 94.0864 222.693 94.727 222.693C95.102 222.693 95.4354 222.62 95.727 222.464C96.0187 222.297 96.1645 222.042 96.1645 221.693C96.1645 221.432 96.0447 221.229 95.8104 221.089C95.6697 221.005 95.3781 220.911 94.9354 220.797L94.1229 220.589C93.5916 220.453 93.2062 220.307 92.9562 220.151C92.5083 219.875 92.2895 219.484 92.2895 218.984C92.2895 218.417 92.4979 217.953 92.9145 217.589C93.3416 217.229 93.9041 217.047 94.602 217.047C95.5291 217.047 96.1958 217.318 96.602 217.859C96.8624 218.208 96.9874 218.578 96.977 218.964H96.0187C95.9874 218.729 95.9041 218.521 95.7687 218.339C95.5291 218.063 95.1229 217.922 94.5395 217.922C94.1489 217.922 93.852 218 93.6437 218.151C93.4458 218.307 93.352 218.5 93.352 218.734C93.352 219 93.4822 219.214 93.7479 219.38C93.8989 219.479 94.1229 219.563 94.4145 219.63L95.102 219.797C95.8364 219.979 96.3312 220.151 96.5812 220.318C96.9822 220.583 97.1854 221 97.1854 221.568C97.1854 222.109 96.977 222.583 96.5604 222.984C96.1541 223.37 95.5239 223.568 94.6645 223.568C93.7583 223.568 93.1124 223.365 92.727 222.964C92.352 222.547 92.1489 222.036 92.1229 221.422H93.1229Z" fill="#4D4D4D"/>
<path d="M98.3646 217.234H99.4271V223.339H98.3646V217.234ZM98.3646 214.922H99.4271V216.089H98.3646V214.922Z" fill="#4D4D4D"/>
<path d="M101.763 221.714C101.763 222.005 101.872 222.245 102.096 222.422C102.315 222.589 102.576 222.672 102.867 222.672C103.227 222.672 103.581 222.589 103.93 222.422C104.497 222.146 104.784 221.688 104.784 221.047V220.214C104.659 220.297 104.492 220.37 104.284 220.422C104.086 220.479 103.893 220.516 103.701 220.526L103.076 220.609C102.711 220.667 102.435 220.745 102.242 220.839C101.919 221.021 101.763 221.313 101.763 221.714ZM104.263 219.63C104.497 219.589 104.659 219.484 104.742 219.318C104.784 219.234 104.805 219.104 104.805 218.922C104.805 218.578 104.68 218.328 104.43 218.172C104.18 218.005 103.826 217.922 103.367 217.922C102.826 217.922 102.44 218.068 102.221 218.359C102.096 218.526 102.013 218.766 101.971 219.068H101.013C101.023 218.318 101.268 217.797 101.742 217.505C102.211 217.203 102.763 217.047 103.388 217.047C104.107 217.047 104.69 217.188 105.138 217.464C105.581 217.745 105.805 218.172 105.805 218.755V222.276C105.805 222.391 105.826 222.479 105.867 222.547C105.919 222.604 106.018 222.63 106.159 222.63C106.201 222.63 106.247 222.63 106.305 222.63C106.357 222.63 106.419 222.625 106.492 222.609V223.359C106.326 223.411 106.201 223.443 106.117 223.443C106.034 223.453 105.919 223.464 105.784 223.464C105.419 223.464 105.164 223.339 105.013 223.089C104.93 222.964 104.867 222.776 104.826 222.526C104.617 222.807 104.315 223.047 103.93 223.255C103.539 223.448 103.102 223.547 102.617 223.547C102.044 223.547 101.581 223.37 101.221 223.026C100.872 222.682 100.701 222.25 100.701 221.734C100.701 221.167 100.872 220.729 101.221 220.422C101.581 220.104 102.044 219.901 102.617 219.818L104.263 219.63Z" fill="#4D4D4D"/>
<path d="M67.5625 162.417C69.0469 162.417 70.151 162.896 70.875 163.854C71.4271 164.604 71.7083 165.557 71.7083 166.708C71.7083 167.974 71.3854 169.016 70.75 169.833C70 170.823 68.9271 171.313 67.5417 171.313C66.25 171.313 65.2344 170.885 64.5 170.021C63.8333 169.203 63.5 168.161 63.5 166.896C63.5 165.76 63.7813 164.786 64.3542 163.979C65.0729 162.938 66.1458 162.417 67.5625 162.417ZM67.6875 170.292C68.6875 170.292 69.4063 169.932 69.8542 169.208C70.3125 168.49 70.5417 167.661 70.5417 166.729C70.5417 165.745 70.276 164.953 69.75 164.354C69.2344 163.745 68.526 163.438 67.625 163.438C66.7604 163.438 66.0521 163.74 65.5 164.333C64.9583 164.932 64.6875 165.813 64.6875 166.979C64.6875 167.911 64.9219 168.698 65.3958 169.333C65.8646 169.974 66.6302 170.292 67.6875 170.292Z" fill="#4D4D4D"/>
<path d="M75.2933 164.75C75.986 164.75 76.5485 164.917 76.9808 165.25C77.4078 165.583 77.6683 166.167 77.7516 167H76.7516C76.6943 166.615 76.5537 166.292 76.3349 166.042C76.111 165.792 75.762 165.667 75.2933 165.667C74.637 165.667 74.1683 165.995 73.8766 166.646C73.6943 167.052 73.6058 167.557 73.6058 168.167C73.6058 168.792 73.7308 169.313 73.9808 169.729C74.2412 170.146 74.6578 170.354 75.2308 170.354C75.6474 170.354 75.9808 170.229 76.2308 169.979C76.4808 169.719 76.6526 169.354 76.7516 168.896H77.7516C77.637 169.703 77.3558 170.302 76.8974 170.688C76.4391 171.063 75.8558 171.25 75.1474 171.25C74.3401 171.25 73.6943 170.958 73.2099 170.375C72.736 169.781 72.5016 169.042 72.5016 168.167C72.5016 167.083 72.762 166.245 73.2933 165.646C73.8193 165.052 74.486 164.75 75.2933 164.75Z" fill="#4D4D4D"/>
<path d="M81.3474 164.792C81.7745 164.792 82.1911 164.896 82.5974 165.104C83.014 165.302 83.3265 165.563 83.5349 165.896C83.7432 166.203 83.8786 166.563 83.9515 166.979C84.0192 167.26 84.0557 167.708 84.0557 168.333H79.5557C79.5661 168.948 79.712 169.448 79.9932 169.833C80.2692 170.208 80.6911 170.396 81.264 170.396C81.8057 170.396 82.2328 170.219 82.5557 169.854C82.7328 169.646 82.8682 169.411 82.9515 169.146H83.9724C83.9411 169.37 83.8526 169.62 83.7015 169.896C83.5453 170.177 83.3734 170.396 83.1807 170.563C82.8734 170.87 82.4932 171.073 82.0349 171.188C81.7849 171.24 81.4984 171.271 81.1807 171.271C80.4151 171.271 79.7692 170.995 79.2432 170.438C78.712 169.885 78.4515 169.104 78.4515 168.104C78.4515 167.135 78.712 166.344 79.2432 165.729C79.7849 165.104 80.4828 164.792 81.3474 164.792ZM82.9932 167.5C82.9515 167.057 82.8526 166.703 82.7015 166.438C82.4099 165.938 81.9359 165.688 81.2849 165.688C80.8109 165.688 80.4151 165.865 80.0974 166.208C79.7745 166.542 79.6026 166.974 79.5765 167.5H82.9932Z" fill="#4D4D4D"/>
<path d="M86.1021 169.438C86.1021 169.729 86.2114 169.969 86.4354 170.146C86.6541 170.313 86.9146 170.396 87.2062 170.396C87.5656 170.396 87.9198 170.313 88.2687 170.146C88.8364 169.87 89.1229 169.411 89.1229 168.771V167.938C88.9979 168.021 88.8312 168.094 88.6229 168.146C88.425 168.203 88.2323 168.24 88.0396 168.25L87.4146 168.333C87.05 168.391 86.7739 168.469 86.5812 168.563C86.2583 168.745 86.1021 169.036 86.1021 169.438ZM88.6021 167.354C88.8364 167.313 88.9979 167.208 89.0812 167.042C89.1229 166.958 89.1437 166.828 89.1437 166.646C89.1437 166.302 89.0187 166.052 88.7687 165.896C88.5187 165.729 88.1646 165.646 87.7062 165.646C87.1646 165.646 86.7791 165.792 86.5604 166.083C86.4354 166.25 86.3521 166.49 86.3104 166.792H85.3521C85.3625 166.042 85.6073 165.521 86.0812 165.229C86.55 164.927 87.1021 164.771 87.7271 164.771C88.4458 164.771 89.0291 164.911 89.4771 165.188C89.9198 165.469 90.1437 165.896 90.1437 166.479V170C90.1437 170.115 90.1646 170.203 90.2062 170.271C90.2583 170.328 90.3573 170.354 90.4979 170.354C90.5396 170.354 90.5864 170.354 90.6437 170.354C90.6958 170.354 90.7583 170.349 90.8312 170.333V171.083C90.6646 171.135 90.5396 171.167 90.4562 171.167C90.3729 171.177 90.2583 171.188 90.1229 171.188C89.7583 171.188 89.5031 171.063 89.3521 170.813C89.2687 170.688 89.2062 170.5 89.1646 170.25C88.9562 170.531 88.6541 170.771 88.2687 170.979C87.8781 171.172 87.4406 171.271 86.9562 171.271C86.3833 171.271 85.9198 171.094 85.5604 170.75C85.2114 170.406 85.0396 169.974 85.0396 169.458C85.0396 168.891 85.2114 168.453 85.5604 168.146C85.9198 167.828 86.3833 167.625 86.9562 167.542L88.6021 167.354Z" fill="#4D4D4D"/>
<path d="M91.8359 164.938H92.8151V165.792C93.1068 165.448 93.4089 165.198 93.7318 165.042C94.0651 164.875 94.4297 164.792 94.8359 164.792C95.6953 164.792 96.2786 165.099 96.5859 165.708C96.7526 166.042 96.8359 166.516 96.8359 167.125V171.063H95.7943V167.188C95.7943 166.828 95.737 166.531 95.6276 166.292C95.4453 165.917 95.112 165.729 94.6276 165.729C94.388 165.729 94.1901 165.75 94.0234 165.792C93.7422 165.875 93.5026 166.042 93.2943 166.292C93.112 166.5 92.9922 166.719 92.9401 166.938C92.8984 167.146 92.8776 167.453 92.8776 167.854V171.063H91.8359V164.938Z" fill="#4D4D4D"/>
<path d="M98.3615 164.958H99.424V171.063H98.3615V164.958ZM98.3615 162.646H99.424V163.813H98.3615V162.646Z" fill="#4D4D4D"/>
<path d="M101.76 169.438C101.76 169.729 101.869 169.969 102.093 170.146C102.312 170.313 102.572 170.396 102.864 170.396C103.223 170.396 103.578 170.313 103.927 170.146C104.494 169.87 104.781 169.411 104.781 168.771V167.938C104.656 168.021 104.489 168.094 104.281 168.146C104.083 168.203 103.89 168.24 103.697 168.25L103.072 168.333C102.708 168.391 102.432 168.469 102.239 168.563C101.916 168.745 101.76 169.036 101.76 169.438ZM104.26 167.354C104.494 167.313 104.656 167.208 104.739 167.042C104.781 166.958 104.802 166.828 104.802 166.646C104.802 166.302 104.677 166.052 104.427 165.896C104.177 165.729 103.822 165.646 103.364 165.646C102.822 165.646 102.437 165.792 102.218 166.083C102.093 166.25 102.01 166.49 101.968 166.792H101.01C101.02 166.042 101.265 165.521 101.739 165.229C102.208 164.927 102.76 164.771 103.385 164.771C104.104 164.771 104.687 164.911 105.135 165.188C105.578 165.469 105.802 165.896 105.802 166.479V170C105.802 170.115 105.822 170.203 105.864 170.271C105.916 170.328 106.015 170.354 106.156 170.354C106.197 170.354 106.244 170.354 106.302 170.354C106.354 170.354 106.416 170.349 106.489 170.333V171.083C106.322 171.135 106.197 171.167 106.114 171.167C106.031 171.177 105.916 171.188 105.781 171.188C105.416 171.188 105.161 171.063 105.01 170.813C104.927 170.688 104.864 170.5 104.822 170.25C104.614 170.531 104.312 170.771 103.927 170.979C103.536 171.172 103.098 171.271 102.614 171.271C102.041 171.271 101.578 171.094 101.218 170.75C100.869 170.406 100.697 169.974 100.697 169.458C100.697 168.891 100.869 168.453 101.218 168.146C101.578 167.828 102.041 167.625 102.614 167.542L104.26 167.354Z" fill="#4D4D4D"/>
<path d="M69.9114 110.37H76.0573V111.411H71.0156V113.953H75.6614V114.932H71.0156V117.786H76.1406V118.786H69.9114V110.37Z" fill="#4D4D4D"/>
<path d="M78.5292 112.661V116.724C78.5292 117.047 78.576 117.302 78.675 117.495C78.8521 117.859 79.1958 118.036 79.6958 118.036C80.4146 118.036 80.9042 117.719 81.1542 117.078C81.3052 116.734 81.3833 116.26 81.3833 115.661V112.661H82.4042V118.786H81.425L81.4458 117.891C81.3052 118.115 81.1385 118.307 80.9458 118.474C80.5552 118.792 80.076 118.953 79.5083 118.953C78.6333 118.953 78.0396 118.661 77.7375 118.078C77.5552 117.76 77.4667 117.344 77.4667 116.828V112.661H78.5292Z" fill="#4D4D4D"/>
<path d="M84.0547 112.661H85.0339V113.703C85.1016 113.51 85.2943 113.266 85.6172 112.974C85.9349 112.672 86.2943 112.516 86.7005 112.516C86.7109 112.516 86.7422 112.526 86.7839 112.536C86.8359 112.536 86.9193 112.536 87.0339 112.536V113.641C86.9609 113.63 86.8984 113.62 86.8464 113.62C86.8047 113.609 86.7526 113.599 86.7005 113.599C86.1693 113.599 85.7682 113.766 85.4922 114.099C85.2109 114.432 85.0755 114.823 85.0755 115.266V118.786H84.0547V112.661Z" fill="#4D4D4D"/>
<path d="M90.3578 118.12C91.0349 118.12 91.5036 117.865 91.7536 117.349C92.014 116.839 92.1494 116.26 92.1494 115.62C92.1494 115.052 92.0557 114.589 91.8786 114.224C91.5869 113.656 91.0869 113.37 90.3786 113.37C89.738 113.37 89.2744 113.615 88.9828 114.099C88.7015 114.573 88.5661 115.151 88.5661 115.828C88.5661 116.484 88.7015 117.031 88.9828 117.474C89.2744 117.906 89.7328 118.12 90.3578 118.12ZM90.3994 112.474C91.1911 112.474 91.8578 112.74 92.3994 113.266C92.9515 113.797 93.2328 114.573 93.2328 115.599C93.2328 116.589 92.988 117.406 92.5036 118.057C92.014 118.698 91.264 119.016 90.2536 119.016C89.4203 119.016 88.7536 118.734 88.2536 118.161C87.7536 117.594 87.5036 116.823 87.5036 115.849C87.5036 114.823 87.764 114.005 88.2953 113.391C88.8213 112.781 89.5244 112.474 90.3994 112.474Z" fill="#4D4D4D"/>
<path d="M97.05 118.099C97.5187 118.099 97.9146 117.901 98.2375 117.495C98.5552 117.094 98.7167 116.49 98.7167 115.682C98.7167 115.198 98.6437 114.781 98.5083 114.432C98.2427 113.755 97.7583 113.411 97.05 113.411C96.326 113.411 95.8312 113.766 95.5708 114.474C95.4302 114.865 95.3625 115.349 95.3625 115.932C95.3625 116.406 95.4302 116.807 95.5708 117.141C95.8312 117.781 96.326 118.099 97.05 118.099ZM94.3625 112.682H95.3833V113.495C95.576 113.219 95.8 113.005 96.05 112.849C96.3937 112.615 96.8052 112.495 97.2792 112.495C97.9719 112.495 98.5604 112.766 99.05 113.307C99.5344 113.839 99.7792 114.594 99.7792 115.578C99.7792 116.927 99.425 117.885 98.7167 118.453C98.2687 118.812 97.7583 118.995 97.175 118.995C96.7167 118.995 96.326 118.891 96.0083 118.682C95.826 118.573 95.6229 118.38 95.4042 118.099V121.224H94.3625V112.682Z" fill="#4D4D4D"/>
<path d="M103.534 112.516C103.961 112.516 104.378 112.62 104.784 112.828C105.201 113.026 105.513 113.286 105.721 113.62C105.93 113.927 106.065 114.286 106.138 114.703C106.206 114.984 106.242 115.432 106.242 116.057H101.742C101.753 116.672 101.898 117.172 102.18 117.557C102.456 117.932 102.878 118.12 103.451 118.12C103.992 118.12 104.419 117.943 104.742 117.578C104.919 117.37 105.055 117.135 105.138 116.87H106.159C106.128 117.094 106.039 117.344 105.888 117.62C105.732 117.901 105.56 118.12 105.367 118.286C105.06 118.594 104.68 118.797 104.221 118.911C103.971 118.964 103.685 118.995 103.367 118.995C102.602 118.995 101.956 118.719 101.43 118.161C100.898 117.609 100.638 116.828 100.638 115.828C100.638 114.859 100.898 114.068 101.43 113.453C101.971 112.828 102.669 112.516 103.534 112.516ZM105.18 115.224C105.138 114.781 105.039 114.427 104.888 114.161C104.596 113.661 104.122 113.411 103.471 113.411C102.997 113.411 102.602 113.589 102.284 113.932C101.961 114.266 101.789 114.698 101.763 115.224H105.18Z" fill="#4D4D4D"/>
<path d="M32.6562 58.099H33.9896L38.2396 64.9115V58.099H39.3229V66.5156H38.0521L33.7396 59.7031V66.5156H32.6562V58.099Z" fill="#4D4D4D"/>
<path d="M43.4214 65.849C44.0985 65.849 44.5672 65.5938 44.8172 65.0781C45.0776 64.5677 45.213 63.9896 45.213 63.349C45.213 62.7813 45.1193 62.3177 44.9422 61.9531C44.6505 61.3854 44.1505 61.099 43.4422 61.099C42.8016 61.099 42.338 61.3438 42.0464 61.8281C41.7651 62.3021 41.6297 62.8802 41.6297 63.5573C41.6297 64.2135 41.7651 64.7604 42.0464 65.2031C42.338 65.6354 42.7964 65.849 43.4214 65.849ZM43.463 60.2031C44.2547 60.2031 44.9214 60.4688 45.463 60.9948C46.0151 61.526 46.2964 62.3021 46.2964 63.3281C46.2964 64.3177 46.0516 65.1354 45.5672 65.7865C45.0776 66.4271 44.3276 66.7448 43.3172 66.7448C42.4839 66.7448 41.8172 66.4635 41.3172 65.8906C40.8172 65.3229 40.5672 64.5521 40.5672 63.5781C40.5672 62.5521 40.8276 61.7344 41.3589 61.1198C41.8849 60.5104 42.588 60.2031 43.463 60.2031Z" fill="#4D4D4D"/>
<path d="M47.551 60.3906H48.5302V61.4323C48.5979 61.2396 48.7906 60.9948 49.1135 60.7031C49.4312 60.401 49.7906 60.2448 50.1969 60.2448C50.2073 60.2448 50.2385 60.2552 50.2802 60.2656C50.3323 60.2656 50.4156 60.2656 50.5302 60.2656V61.3698C50.4573 61.3594 50.3948 61.3489 50.3427 61.3489C50.301 61.3385 50.2489 61.3281 50.1969 61.3281C49.6656 61.3281 49.2646 61.4948 48.9885 61.8281C48.7073 62.1614 48.5719 62.5521 48.5719 62.9948V66.5156H47.551V60.3906Z" fill="#4D4D4D"/>
<path d="M51.625 58.6615H52.6667V60.3906H53.6459V61.224H52.6667V65.224C52.6667 65.4479 52.7396 65.5938 52.8959 65.6615C52.9636 65.7031 53.0938 65.724 53.2917 65.724C53.3334 65.724 53.3802 65.724 53.4375 65.724C53.5052 65.724 53.5729 65.7188 53.6459 65.7031V66.5156C53.5313 66.5417 53.4063 66.5625 53.2709 66.5781C53.1459 66.6042 53.0104 66.6198 52.875 66.6198C52.3854 66.6198 52.0521 66.4948 51.875 66.2448C51.7084 65.9948 51.625 65.6771 51.625 65.2865V61.224H50.7917V60.3906H51.625V58.6615Z" fill="#4D4D4D"/>
<path d="M54.6766 58.0781H55.7182V61.2031C55.9526 60.901 56.1662 60.6823 56.3641 60.5573C56.6974 60.3385 57.1141 60.224 57.6141 60.224C58.4995 60.224 59.1037 60.5365 59.4266 61.1615C59.5932 61.5104 59.6766 61.9844 59.6766 62.5781V66.5156H58.6141V62.6406C58.6141 62.1979 58.5568 61.8698 58.4474 61.6615C58.2651 61.3281 57.9162 61.1615 57.4057 61.1615C56.9734 61.1615 56.5828 61.3073 56.2391 61.599C55.8901 61.8906 55.7182 62.4479 55.7182 63.2656V66.5156H54.6766V58.0781Z" fill="#4D4D4D"/>
<path d="M68.9203 63.0781L67.6495 59.349L66.2953 63.0781H68.9203ZM67.0453 58.099H68.337L71.3995 66.5156H70.1495L69.2953 63.9948H65.962L65.0453 66.5156H63.8787L67.0453 58.099Z" fill="#4D4D4D"/>
<path d="M72.288 60.3906H73.3089V61.2448C73.5589 60.9531 73.7776 60.7396 73.9755 60.5989C74.3193 60.3646 74.7099 60.2448 75.1422 60.2448C75.6266 60.2448 76.0172 60.3646 76.3089 60.5989C76.4755 60.7396 76.6266 60.9427 76.7672 61.2031C77.0016 60.8854 77.2724 60.651 77.5797 60.4948C77.8818 60.3281 78.2307 60.2448 78.6214 60.2448C79.4391 60.2448 80.0016 60.5469 80.3089 61.1406C80.4599 61.4635 80.538 61.8906 80.538 62.4323V66.5156H79.4755V62.2448C79.4755 61.8437 79.3714 61.5677 79.163 61.4114C78.9651 61.2604 78.7151 61.1823 78.413 61.1823C78.0068 61.1823 77.663 61.3229 77.3714 61.5989C77.0797 61.8646 76.9339 62.3177 76.9339 62.9531V66.5156H75.8922V62.5156C75.8922 62.0989 75.8401 61.7969 75.7464 61.5989C75.5901 61.3229 75.2984 61.1823 74.8714 61.1823C74.4807 61.1823 74.1266 61.3385 73.8089 61.6406C73.4859 61.9323 73.3297 62.4739 73.3297 63.2656V66.5156H72.288V60.3906Z" fill="#4D4D4D"/>
<path d="M84.6245 60.2448C85.0516 60.2448 85.4682 60.3489 85.8745 60.5573C86.2911 60.7552 86.6036 61.0156 86.812 61.3489C87.0203 61.6562 87.1557 62.0156 87.2286 62.4323C87.2963 62.7135 87.3328 63.1614 87.3328 63.7864H82.8328C82.8432 64.401 82.9891 64.901 83.2703 65.2864C83.5463 65.6614 83.9682 65.8489 84.5411 65.8489C85.0828 65.8489 85.5099 65.6719 85.8328 65.3073C86.0099 65.0989 86.1453 64.8646 86.2286 64.5989H87.2495C87.2182 64.8229 87.1297 65.0729 86.9786 65.3489C86.8224 65.6302 86.6505 65.8489 86.4578 66.0156C86.1505 66.3229 85.7703 66.526 85.312 66.6406C85.062 66.6927 84.7755 66.7239 84.4578 66.7239C83.6922 66.7239 83.0463 66.4479 82.5203 65.8906C81.9891 65.3385 81.7286 64.5573 81.7286 63.5573C81.7286 62.5885 81.9891 61.7969 82.5203 61.1823C83.062 60.5573 83.7599 60.2448 84.6245 60.2448ZM86.2703 62.9531C86.2286 62.5104 86.1297 62.1562 85.9786 61.8906C85.687 61.3906 85.213 61.1406 84.562 61.1406C84.088 61.1406 83.6922 61.3177 83.3745 61.6614C83.0516 61.9948 82.8797 62.4271 82.8536 62.9531H86.2703Z" fill="#4D4D4D"/>
<path d="M88.6292 60.3906H89.6083V61.4323C89.676 61.2396 89.8687 60.9948 90.1917 60.7031C90.5094 60.401 90.8687 60.2448 91.275 60.2448C91.2854 60.2448 91.3167 60.2552 91.3583 60.2656C91.4104 60.2656 91.4937 60.2656 91.6083 60.2656V61.3698C91.5354 61.3594 91.4729 61.3489 91.4208 61.3489C91.3792 61.3385 91.3271 61.3281 91.275 61.3281C90.7437 61.3281 90.3427 61.4948 90.0667 61.8281C89.7854 62.1614 89.65 62.5521 89.65 62.9948V66.5156H88.6292V60.3906Z" fill="#4D4D4D"/>
<path d="M92.4948 60.4115H93.5573V66.5156H92.4948V60.4115ZM92.4948 58.099H93.5573V59.2656H92.4948V58.099Z" fill="#4D4D4D"/>
<path d="M97.4765 60.2031C98.1693 60.2031 98.7318 60.3698 99.164 60.7031C99.5911 61.0365 99.8515 61.6198 99.9349 62.4531H98.9349C98.8776 62.0677 98.737 61.7448 98.5182 61.4948C98.2943 61.2448 97.9453 61.1198 97.4765 61.1198C96.8203 61.1198 96.3515 61.4479 96.0599 62.099C95.8776 62.5052 95.789 63.0104 95.789 63.6198C95.789 64.2448 95.914 64.7656 96.164 65.1823C96.4245 65.599 96.8411 65.8073 97.414 65.8073C97.8307 65.8073 98.164 65.6823 98.414 65.4323C98.664 65.1719 98.8359 64.8073 98.9349 64.349H99.9349C99.8203 65.1563 99.539 65.7552 99.0807 66.1406C98.6224 66.5156 98.039 66.7031 97.3307 66.7031C96.5234 66.7031 95.8776 66.4115 95.3932 65.8281C94.9193 65.2344 94.6849 64.4948 94.6849 63.6198C94.6849 62.5365 94.9453 61.6979 95.4765 61.099C96.0026 60.5052 96.6693 60.2031 97.4765 60.2031Z" fill="#4D4D4D"/>
<path d="M101.76 64.8906C101.76 65.1823 101.869 65.4219 102.093 65.599C102.312 65.7656 102.572 65.849 102.864 65.849C103.223 65.849 103.578 65.7656 103.927 65.599C104.494 65.3229 104.781 64.8646 104.781 64.224V63.3906C104.656 63.474 104.489 63.5469 104.281 63.599C104.083 63.6563 103.89 63.6927 103.697 63.7031L103.072 63.7865C102.708 63.8438 102.432 63.9219 102.239 64.0156C101.916 64.1979 101.76 64.4896 101.76 64.8906ZM104.26 62.8073C104.494 62.7656 104.656 62.6615 104.739 62.4948C104.781 62.4115 104.802 62.2813 104.802 62.099C104.802 61.7552 104.677 61.5052 104.427 61.349C104.177 61.1823 103.822 61.099 103.364 61.099C102.822 61.099 102.437 61.2448 102.218 61.5365C102.093 61.7031 102.01 61.9427 101.968 62.2448H101.01C101.02 61.4948 101.265 60.974 101.739 60.6823C102.208 60.3802 102.76 60.224 103.385 60.224C104.104 60.224 104.687 60.3646 105.135 60.6406C105.578 60.9219 105.802 61.349 105.802 61.9323V65.4531C105.802 65.5677 105.822 65.6563 105.864 65.724C105.916 65.7813 106.015 65.8073 106.156 65.8073C106.197 65.8073 106.244 65.8073 106.302 65.8073C106.354 65.8073 106.416 65.8021 106.489 65.7865V66.5365C106.322 66.5886 106.197 66.6198 106.114 66.6198C106.031 66.6302 105.916 66.6406 105.781 66.6406C105.416 66.6406 105.161 66.5156 105.01 66.2656C104.927 66.1406 104.864 65.9531 104.822 65.7031C104.614 65.9844 104.312 66.224 103.927 66.4323C103.536 66.625 103.098 66.724 102.614 66.724C102.041 66.724 101.578 66.5469 101.218 66.2031C100.869 65.8594 100.697 65.4271 100.697 64.9115C100.697 64.3438 100.869 63.9063 101.218 63.599C101.578 63.2813 102.041 63.0781 102.614 62.9948L104.26 62.8073Z" fill="#4D4D4D"/>
<path d="M139.562 414.109C140.63 414.109 141.401 414.547 141.875 415.422C142.234 416.104 142.417 417.036 142.417 418.214C142.417 419.328 142.25 420.245 141.917 420.964C141.443 422.021 140.656 422.547 139.562 422.547C138.573 422.547 137.839 422.12 137.354 421.255C136.964 420.547 136.771 419.589 136.771 418.38C136.771 417.453 136.885 416.651 137.125 415.984C137.568 414.734 138.38 414.109 139.562 414.109ZM139.562 421.609C140.089 421.609 140.51 421.375 140.833 420.901C141.151 420.417 141.312 419.536 141.312 418.255C141.312 417.313 141.193 416.542 140.958 415.943C140.734 415.349 140.292 415.047 139.625 415.047C139.026 415.047 138.583 415.333 138.292 415.901C138.01 416.474 137.875 417.313 137.875 418.422C137.875 419.255 137.964 419.932 138.146 420.443C138.422 421.224 138.896 421.609 139.562 421.609Z" fill="#4D4D4D"/>
<path d="M250.604 420.234C250.656 420.818 250.927 421.224 251.417 421.443C251.651 421.557 251.937 421.609 252.271 421.609C252.88 421.609 253.333 421.417 253.625 421.026C253.917 420.641 254.062 420.208 254.062 419.734C254.062 419.167 253.885 418.729 253.542 418.422C253.193 418.104 252.771 417.943 252.271 417.943C251.922 417.943 251.615 418.016 251.354 418.151C251.104 418.292 250.885 418.479 250.708 418.714L249.812 418.672L250.437 414.255H254.708V415.255H251.229L250.875 417.526C251.052 417.391 251.234 417.286 251.417 417.214C251.719 417.078 252.073 417.005 252.479 417.005C253.229 417.005 253.859 417.25 254.375 417.734C254.901 418.224 255.167 418.839 255.167 419.589C255.167 420.37 254.922 421.057 254.437 421.651C253.964 422.234 253.208 422.526 252.167 422.526C251.484 422.526 250.885 422.339 250.375 421.964C249.875 421.589 249.589 421.016 249.521 420.234H250.604Z" fill="#4D4D4D"/>
<path d="M258.838 414.109C259.906 414.109 260.677 414.547 261.15 415.422C261.51 416.104 261.692 417.036 261.692 418.214C261.692 419.328 261.525 420.245 261.192 420.964C260.718 422.021 259.932 422.547 258.838 422.547C257.848 422.547 257.114 422.12 256.63 421.255C256.239 420.547 256.046 419.589 256.046 418.38C256.046 417.453 256.161 416.651 256.4 415.984C256.843 414.734 257.656 414.109 258.838 414.109ZM258.838 421.609C259.364 421.609 259.786 421.375 260.109 420.901C260.427 420.417 260.588 419.536 260.588 418.255C260.588 417.313 260.468 416.542 260.234 415.943C260.01 415.349 259.567 415.047 258.9 415.047C258.302 415.047 257.859 415.333 257.567 415.901C257.286 416.474 257.15 417.313 257.15 418.422C257.15 419.255 257.239 419.932 257.421 420.443C257.697 421.224 258.171 421.609 258.838 421.609Z" fill="#4D4D4D"/>
<path d="M363.021 416.505V415.714C363.755 415.646 364.271 415.526 364.563 415.359C364.865 415.193 365.089 414.792 365.229 414.151H366.042V422.318H364.958V416.505H363.021Z" fill="#4D4D4D"/>
<path d="M371.588 414.109C372.656 414.109 373.427 414.547 373.901 415.422C374.26 416.104 374.442 417.036 374.442 418.214C374.442 419.328 374.276 420.245 373.942 420.964C373.468 422.021 372.682 422.547 371.588 422.547C370.598 422.547 369.864 422.12 369.38 421.255C368.989 420.547 368.796 419.589 368.796 418.38C368.796 417.453 368.911 416.651 369.151 415.984C369.593 414.734 370.406 414.109 371.588 414.109ZM371.588 421.609C372.114 421.609 372.536 421.375 372.859 420.901C373.177 420.417 373.338 419.536 373.338 418.255C373.338 417.313 373.218 416.542 372.984 415.943C372.76 415.349 372.317 415.047 371.651 415.047C371.052 415.047 370.609 415.333 370.317 415.901C370.036 416.474 369.901 417.313 369.901 418.422C369.901 419.255 369.989 419.932 370.171 420.443C370.447 421.224 370.921 421.609 371.588 421.609Z" fill="#4D4D4D"/>
<path d="M378.114 414.109C379.181 414.109 379.952 414.547 380.426 415.422C380.785 416.104 380.968 417.036 380.968 418.214C380.968 419.328 380.801 420.245 380.468 420.964C379.994 422.021 379.207 422.547 378.114 422.547C377.124 422.547 376.39 422.12 375.905 421.255C375.515 420.547 375.322 419.589 375.322 418.38C375.322 417.453 375.436 416.651 375.676 415.984C376.119 414.734 376.931 414.109 378.114 414.109ZM378.114 421.609C378.64 421.609 379.061 421.375 379.384 420.901C379.702 420.417 379.864 419.536 379.864 418.255C379.864 417.313 379.744 416.542 379.509 415.943C379.285 415.349 378.843 415.047 378.176 415.047C377.577 415.047 377.134 415.333 376.843 415.901C376.561 416.474 376.426 417.313 376.426 418.422C376.426 419.255 376.515 419.932 376.697 420.443C376.973 421.224 377.447 421.609 378.114 421.609Z" fill="#4D4D4D"/>
<path d="M479.036 416.505V415.714C479.771 415.646 480.286 415.526 480.578 415.359C480.88 415.193 481.104 414.792 481.245 414.151H482.057V422.318H480.974V416.505H479.036Z" fill="#4D4D4D"/>
<path d="M485.895 420.234C485.947 420.818 486.218 421.224 486.708 421.443C486.942 421.557 487.229 421.609 487.562 421.609C488.171 421.609 488.624 421.417 488.916 421.026C489.208 420.641 489.354 420.208 489.354 419.734C489.354 419.167 489.177 418.729 488.833 418.422C488.484 418.104 488.062 417.943 487.562 417.943C487.213 417.943 486.906 418.016 486.645 418.151C486.395 418.292 486.177 418.479 485.999 418.714L485.104 418.672L485.729 414.255H489.999V415.255H486.52L486.166 417.526C486.343 417.391 486.526 417.286 486.708 417.214C487.01 417.078 487.364 417.005 487.77 417.005C488.52 417.005 489.151 417.25 489.666 417.734C490.192 418.224 490.458 418.839 490.458 419.589C490.458 420.37 490.213 421.057 489.729 421.651C489.255 422.234 488.499 422.526 487.458 422.526C486.776 422.526 486.177 422.339 485.666 421.964C485.166 421.589 484.88 421.016 484.812 420.234H485.895Z" fill="#4D4D4D"/>
<path d="M494.129 414.109C495.197 414.109 495.968 414.547 496.442 415.422C496.801 416.104 496.983 417.036 496.983 418.214C496.983 419.328 496.817 420.245 496.483 420.964C496.009 422.021 495.223 422.547 494.129 422.547C493.14 422.547 492.405 422.12 491.921 421.255C491.53 420.547 491.337 419.589 491.337 418.38C491.337 417.453 491.452 416.651 491.692 415.984C492.134 414.734 492.947 414.109 494.129 414.109ZM494.129 421.609C494.655 421.609 495.077 421.375 495.4 420.901C495.718 420.417 495.879 419.536 495.879 418.255C495.879 417.313 495.759 416.542 495.525 415.943C495.301 415.349 494.858 415.047 494.192 415.047C493.593 415.047 493.15 415.333 492.858 415.901C492.577 416.474 492.442 417.313 492.442 418.422C492.442 419.255 492.53 419.932 492.712 420.443C492.989 421.224 493.462 421.609 494.129 421.609Z" fill="#4D4D4D"/>
<path d="M594.302 422.318C594.328 421.609 594.469 421 594.719 420.484C594.979 419.958 595.479 419.479 596.219 419.047L597.323 418.422C597.807 418.13 598.146 417.88 598.344 417.672C598.661 417.37 598.823 417.005 598.823 416.589C598.823 416.12 598.677 415.745 598.385 415.464C598.104 415.172 597.724 415.026 597.24 415.026C596.542 415.026 596.057 415.297 595.781 415.839C595.641 416.12 595.562 416.516 595.552 417.026H594.49C594.5 416.318 594.635 415.734 594.885 415.276C595.328 414.484 596.12 414.089 597.26 414.089C598.187 414.089 598.87 414.349 599.302 414.859C599.745 415.359 599.969 415.922 599.969 416.547C599.969 417.203 599.729 417.766 599.26 418.234C598.995 418.5 598.516 418.828 597.823 419.214L597.052 419.651C596.677 419.859 596.375 420.057 596.156 420.234C595.781 420.568 595.542 420.938 595.448 421.339H599.927V422.318H594.302Z" fill="#4D4D4D"/>
<path d="M603.619 414.109C604.687 414.109 605.458 414.547 605.932 415.422C606.291 416.104 606.473 417.036 606.473 418.214C606.473 419.328 606.307 420.245 605.973 420.964C605.499 422.021 604.713 422.547 603.619 422.547C602.63 422.547 601.895 422.12 601.411 421.255C601.02 420.547 600.828 419.589 600.828 418.38C600.828 417.453 600.942 416.651 601.182 415.984C601.624 414.734 602.437 414.109 603.619 414.109ZM603.619 421.609C604.145 421.609 604.567 421.375 604.89 420.901C605.208 420.417 605.369 419.536 605.369 418.255C605.369 417.313 605.249 416.542 605.015 415.943C604.791 415.349 604.348 415.047 603.682 415.047C603.083 415.047 602.64 415.333 602.348 415.901C602.067 416.474 601.932 417.313 601.932 418.422C601.932 419.255 602.02 419.932 602.203 420.443C602.479 421.224 602.953 421.609 603.619 421.609Z" fill="#4D4D4D"/>
<path d="M610.145 414.109C611.212 414.109 611.983 414.547 612.457 415.422C612.817 416.104 612.999 417.036 612.999 418.214C612.999 419.328 612.832 420.245 612.499 420.964C612.025 422.021 611.239 422.547 610.145 422.547C609.155 422.547 608.421 422.12 607.936 421.255C607.546 420.547 607.353 419.589 607.353 418.38C607.353 417.453 607.468 416.651 607.707 415.984C608.15 414.734 608.962 414.109 610.145 414.109ZM610.145 421.609C610.671 421.609 611.093 421.375 611.416 420.901C611.733 420.417 611.895 419.536 611.895 418.255C611.895 417.313 611.775 416.542 611.541 415.943C611.317 415.349 610.874 415.047 610.207 415.047C609.608 415.047 609.166 415.333 608.874 415.901C608.593 416.474 608.457 417.313 608.457 418.422C608.457 419.255 608.546 419.932 608.728 420.443C609.004 421.224 609.478 421.609 610.145 421.609Z" fill="#4D4D4D"/>
<path d="M364.932 428.13C366.266 428.13 367.297 428.484 368.036 429.193C368.771 429.891 369.182 430.688 369.266 431.589H367.87C367.714 430.911 367.401 430.375 366.932 429.984C366.458 429.583 365.797 429.38 364.953 429.38C363.922 429.38 363.089 429.75 362.453 430.484C361.813 431.208 361.495 432.318 361.495 433.818C361.495 435.057 361.776 436.057 362.349 436.818C362.932 437.583 363.792 437.964 364.932 437.964C365.974 437.964 366.771 437.563 367.328 436.755C367.62 436.328 367.833 435.766 367.974 435.068H369.37C369.245 436.182 368.833 437.109 368.141 437.859C367.307 438.766 366.172 439.214 364.745 439.214C363.521 439.214 362.5 438.849 361.682 438.109C360.583 437.125 360.036 435.609 360.036 433.568C360.036 432.016 360.443 430.745 361.266 429.755C362.151 428.672 363.375 428.13 364.932 428.13Z" fill="black"/>
<path d="M370.962 428.422H372.253V438.943H370.962V428.422Z" fill="black"/>
<path d="M377.22 438.109C378.079 438.109 378.668 437.792 378.991 437.151C379.309 436.5 379.47 435.776 379.47 434.984C379.47 434.266 379.35 433.682 379.116 433.234C378.751 432.526 378.126 432.172 377.241 432.172C376.449 432.172 375.871 432.479 375.512 433.089C375.163 433.688 374.991 434.411 374.991 435.255C374.991 436.078 375.163 436.755 375.512 437.297C375.871 437.839 376.439 438.109 377.22 438.109ZM377.283 431.047C378.267 431.047 379.1 431.38 379.783 432.047C380.46 432.703 380.803 433.667 380.803 434.943C380.803 436.182 380.501 437.203 379.908 438.005C379.309 438.813 378.376 439.214 377.116 439.214C376.059 439.214 375.22 438.859 374.595 438.151C373.97 437.443 373.658 436.484 373.658 435.276C373.658 433.984 373.98 432.958 374.637 432.193C375.288 431.432 376.168 431.047 377.283 431.047Z" fill="black"/>
<path d="M383.106 436.526C383.148 436.958 383.257 437.292 383.439 437.526C383.757 437.943 384.32 438.151 385.127 438.151C385.596 438.151 386.012 438.047 386.377 437.839C386.736 437.63 386.919 437.313 386.919 436.88C386.919 436.547 386.773 436.297 386.481 436.13C386.299 436.021 385.929 435.896 385.377 435.755L384.356 435.505C383.7 435.339 383.221 435.161 382.919 434.964C382.361 434.604 382.085 434.12 382.085 433.505C382.085 432.786 382.34 432.203 382.856 431.755C383.382 431.297 384.09 431.068 384.981 431.068C386.132 431.068 386.965 431.411 387.481 432.089C387.799 432.521 387.95 432.984 387.939 433.484H386.731C386.7 433.193 386.596 432.932 386.419 432.693C386.127 432.349 385.611 432.172 384.877 432.172C384.387 432.172 384.023 432.271 383.773 432.464C383.523 432.646 383.398 432.891 383.398 433.193C383.398 433.526 383.564 433.792 383.898 433.984C384.075 434.109 384.356 434.224 384.731 434.318L385.585 434.526C386.512 434.75 387.132 434.964 387.439 435.172C387.95 435.505 388.21 436.021 388.21 436.714C388.21 437.411 387.945 438.005 387.419 438.505C386.903 438.99 386.117 439.234 385.064 439.234C383.924 439.234 383.111 438.974 382.627 438.464C382.153 437.938 381.903 437.292 381.877 436.526H383.106Z" fill="black"/>
<path d="M392.877 431.109C393.419 431.109 393.939 431.234 394.439 431.484C394.95 431.734 395.346 432.068 395.627 432.484C395.877 432.859 396.044 433.313 396.127 433.839C396.21 434.188 396.252 434.75 396.252 435.526H390.627C390.653 436.307 390.835 436.932 391.169 437.401C391.512 437.859 392.049 438.089 392.773 438.089C393.45 438.089 393.992 437.87 394.398 437.422C394.617 437.172 394.778 436.875 394.877 436.526H396.148C396.106 436.818 395.986 437.141 395.794 437.484C395.611 437.833 395.403 438.109 395.169 438.318C394.778 438.708 394.299 438.969 393.731 439.109C393.408 439.177 393.054 439.214 392.669 439.214C391.71 439.214 390.898 438.87 390.231 438.172C389.575 437.479 389.252 436.505 389.252 435.255C389.252 434.021 389.585 433.021 390.252 432.255C390.919 431.495 391.794 431.109 392.877 431.109ZM394.919 434.505C394.877 433.938 394.757 433.484 394.564 433.151C394.2 432.542 393.611 432.234 392.794 432.234C392.195 432.234 391.695 432.453 391.294 432.88C390.903 433.297 390.695 433.839 390.669 434.505H394.919Z" fill="black"/>
<path d="M398.659 435.193C398.659 436.016 398.831 436.703 399.18 437.255C399.523 437.813 400.081 438.089 400.846 438.089C401.44 438.089 401.93 437.833 402.305 437.318C402.69 436.807 402.888 436.068 402.888 435.109C402.888 434.141 402.685 433.422 402.284 432.964C401.893 432.495 401.409 432.255 400.826 432.255C400.185 432.255 399.664 432.505 399.263 433.005C398.857 433.505 398.659 434.234 398.659 435.193ZM400.596 431.13C401.18 431.13 401.669 431.255 402.076 431.505C402.294 431.646 402.555 431.896 402.846 432.255V428.38H404.076V438.943H402.93V437.88C402.622 438.354 402.263 438.693 401.846 438.901C401.44 439.109 400.977 439.214 400.451 439.214C399.586 439.214 398.846 438.859 398.221 438.151C397.596 437.432 397.284 436.474 397.284 435.276C397.284 434.151 397.565 433.182 398.138 432.359C398.706 431.542 399.523 431.13 400.596 431.13Z" fill="black"/>
<path d="M414.286 437.734C414.755 437.734 415.151 437.682 415.474 437.568C416.016 437.391 416.464 437.036 416.828 436.505C417.104 436.078 417.307 435.526 417.432 434.859C417.5 434.474 417.536 434.104 417.536 433.755C417.536 432.464 417.276 431.458 416.766 430.734C416.25 430.016 415.417 429.651 414.266 429.651H411.724V437.734H414.286ZM410.307 428.422H414.557C416 428.422 417.125 428.938 417.932 429.964C418.641 430.896 418.995 432.083 418.995 433.526C418.995 434.641 418.786 435.646 418.37 436.547C417.63 438.146 416.359 438.943 414.557 438.943H410.307V428.422Z" fill="black"/>
<path d="M423.857 431.109C424.399 431.109 424.92 431.234 425.42 431.484C425.93 431.734 426.326 432.068 426.607 432.484C426.857 432.859 427.024 433.313 427.107 433.839C427.191 434.188 427.232 434.75 427.232 435.526H421.607C421.633 436.307 421.816 436.932 422.149 437.401C422.493 437.859 423.029 438.089 423.753 438.089C424.43 438.089 424.972 437.87 425.378 437.422C425.597 437.172 425.758 436.875 425.857 436.526H427.128C427.087 436.818 426.967 437.141 426.774 437.484C426.592 437.833 426.383 438.109 426.149 438.318C425.758 438.708 425.279 438.969 424.712 439.109C424.389 439.177 424.035 439.214 423.649 439.214C422.691 439.214 421.878 438.87 421.212 438.172C420.555 437.479 420.232 436.505 420.232 435.255C420.232 434.021 420.566 433.021 421.232 432.255C421.899 431.495 422.774 431.109 423.857 431.109ZM425.899 434.505C425.857 433.938 425.738 433.484 425.545 433.151C425.18 432.542 424.592 432.234 423.774 432.234C423.175 432.234 422.675 432.453 422.274 432.88C421.883 433.297 421.675 433.839 421.649 434.505H425.899Z" fill="black"/>
<path d="M429.806 436.901C429.806 437.276 429.936 437.578 430.202 437.797C430.478 438.005 430.806 438.109 431.181 438.109C431.624 438.109 432.061 438.005 432.493 437.797C433.212 437.453 433.577 436.875 433.577 436.068V435.047C433.41 435.146 433.202 435.229 432.952 435.297C432.712 435.354 432.473 435.401 432.223 435.443L431.452 435.526C430.978 435.599 430.624 435.693 430.389 435.818C429.999 436.057 429.806 436.417 429.806 436.901ZM432.931 434.297C433.223 434.255 433.415 434.13 433.514 433.922C433.566 433.813 433.598 433.646 433.598 433.422C433.598 432.995 433.436 432.682 433.118 432.484C432.811 432.276 432.368 432.172 431.785 432.172C431.118 432.172 430.645 432.354 430.368 432.714C430.202 432.922 430.098 433.224 430.056 433.609H428.848C428.874 432.667 429.181 432.016 429.764 431.651C430.358 431.276 431.046 431.089 431.827 431.089C432.728 431.089 433.457 431.266 434.014 431.609C434.582 431.943 434.868 432.479 434.868 433.214V437.63C434.868 437.755 434.889 437.859 434.931 437.943C434.983 438.026 435.103 438.068 435.285 438.068C435.337 438.068 435.4 438.068 435.473 438.068C435.556 438.057 435.629 438.042 435.702 438.026V438.984C435.504 439.036 435.353 439.073 435.243 439.089C435.145 439.099 435.004 439.109 434.827 439.109C434.379 439.109 434.056 438.948 433.848 438.63C433.749 438.464 433.681 438.229 433.639 437.922C433.374 438.271 432.993 438.568 432.493 438.818C432.004 439.068 431.462 439.193 430.868 439.193C430.16 439.193 429.577 438.974 429.118 438.547C428.671 438.12 428.452 437.578 428.452 436.922C428.452 436.214 428.671 435.667 429.118 435.276C429.561 434.891 430.145 434.646 430.868 434.547L432.931 434.297Z" fill="black"/>
<path d="M437.005 428.422H438.296V438.943H437.005V428.422Z" fill="black"/>
<path d="M440.992 436.526C441.034 436.958 441.143 437.292 441.326 437.526C441.643 437.943 442.206 438.151 443.013 438.151C443.482 438.151 443.898 438.047 444.263 437.839C444.622 437.63 444.805 437.313 444.805 436.88C444.805 436.547 444.659 436.297 444.367 436.13C444.185 436.021 443.815 435.896 443.263 435.755L442.242 435.505C441.586 435.339 441.107 435.161 440.805 434.964C440.247 434.604 439.971 434.12 439.971 433.505C439.971 432.786 440.227 432.203 440.742 431.755C441.268 431.297 441.977 431.068 442.867 431.068C444.018 431.068 444.852 431.411 445.367 432.089C445.685 432.521 445.836 432.984 445.826 433.484H444.617C444.586 433.193 444.482 432.932 444.305 432.693C444.013 432.349 443.497 432.172 442.763 432.172C442.273 432.172 441.909 432.271 441.659 432.464C441.409 432.646 441.284 432.891 441.284 433.193C441.284 433.526 441.451 433.792 441.784 433.984C441.961 434.109 442.242 434.224 442.617 434.318L443.471 434.526C444.398 434.75 445.018 434.964 445.326 435.172C445.836 435.505 446.096 436.021 446.096 436.714C446.096 437.411 445.831 438.005 445.305 438.505C444.789 438.99 444.003 439.234 442.951 439.234C441.81 439.234 440.997 438.974 440.513 438.464C440.039 437.938 439.789 437.292 439.763 436.526H440.992Z" fill="black"/>
<path d="M7.01562 244.979C7.01562 243.646 7.36979 242.615 8.07813 241.875C8.77604 241.141 9.57292 240.729 10.474 240.646V242.042C9.79687 242.198 9.26042 242.51 8.86979 242.979C8.46875 243.453 8.26563 244.115 8.26563 244.958C8.26563 245.99 8.63542 246.823 9.36979 247.458C10.0938 248.099 11.2031 248.417 12.7031 248.417C13.9427 248.417 14.9427 248.135 15.7031 247.563C16.4688 246.979 16.849 246.12 16.849 244.979C16.849 243.938 16.4479 243.141 15.6406 242.583C15.2135 242.292 14.651 242.078 13.9531 241.938V240.542C15.0677 240.667 15.9948 241.078 16.7448 241.771C17.651 242.604 18.099 243.74 18.099 245.167C18.099 246.391 17.7344 247.411 16.9948 248.229C16.0104 249.328 14.4948 249.875 12.4531 249.875C10.901 249.875 9.63021 249.469 8.64063 248.646C7.55729 247.76 7.01562 246.536 7.01562 244.979Z" fill="black"/>
<path d="M16.9948 235.95C16.9948 235.09 16.6771 234.502 16.0365 234.179C15.3854 233.861 14.6615 233.7 13.8698 233.7C13.1511 233.7 12.5677 233.82 12.1198 234.054C11.4115 234.419 11.0573 235.044 11.0573 235.929C11.0573 236.721 11.3646 237.299 11.974 237.658C12.5729 238.007 13.2969 238.179 14.1406 238.179C14.9636 238.179 15.6406 238.007 16.1823 237.658C16.724 237.299 16.9948 236.731 16.9948 235.95ZM9.93231 235.887C9.93231 234.903 10.2656 234.07 10.9323 233.387C11.5886 232.71 12.5521 232.367 13.8281 232.367C15.0677 232.367 16.0886 232.669 16.8906 233.262C17.6979 233.861 18.099 234.794 18.099 236.054C18.099 237.111 17.7448 237.95 17.0365 238.575C16.3281 239.2 15.3698 239.512 14.1615 239.512C12.8698 239.512 11.8438 239.189 11.0781 238.533C10.3177 237.882 9.93231 237.002 9.93231 235.887Z" fill="black"/>
<path d="M10.1615 230.835V229.605H11.2448C10.8021 229.246 10.4844 228.866 10.2865 228.46C10.0938 228.043 9.99481 227.595 9.99481 227.105C9.99481 226.012 10.3698 225.272 11.1198 224.897C11.5365 224.689 12.1354 224.585 12.9115 224.585H17.8281V225.876H12.9948C12.5261 225.876 12.1511 225.949 11.8698 226.085C11.3854 226.324 11.1406 226.741 11.1406 227.335C11.1406 227.642 11.1771 227.892 11.2448 228.085C11.3438 228.449 11.5521 228.762 11.8698 229.022C12.1198 229.23 12.3854 229.371 12.6615 229.439C12.9271 229.512 13.3073 229.543 13.8073 229.543H17.8281V230.835H10.1615Z" fill="black"/>
<path d="M8.01562 222.407V221.115H10.1615V219.886H11.2031V221.115H16.224C16.4896 221.115 16.6615 221.027 16.7448 220.844C16.8021 220.735 16.8281 220.568 16.8281 220.344C16.8281 220.277 16.8281 220.209 16.8281 220.136C16.8281 220.068 16.8229 219.985 16.8073 219.886H17.8281C17.8698 220.042 17.8958 220.199 17.9115 220.365C17.9375 220.521 17.9531 220.688 17.9531 220.865C17.9531 221.464 17.8021 221.876 17.4948 222.094C17.1771 222.303 16.776 222.407 16.2865 222.407H11.2031V223.449H10.1615V222.407H8.01562Z" fill="black"/>
<path d="M10.2031 218.603V217.29H17.8281V218.603H10.2031ZM7.30731 218.603V217.29H8.76565V218.603H7.30731Z" fill="black"/>
<path d="M10.1615 215.344V214.115H11.2448C10.8021 213.756 10.4844 213.376 10.2865 212.969C10.0938 212.553 9.99481 212.105 9.99481 211.615C9.99481 210.521 10.3698 209.782 11.1198 209.407C11.5365 209.199 12.1354 209.094 12.9115 209.094H17.8281V210.386H12.9948C12.5261 210.386 12.1511 210.459 11.8698 210.594C11.3854 210.834 11.1406 211.251 11.1406 211.844C11.1406 212.152 11.1771 212.402 11.2448 212.594C11.3438 212.959 11.5521 213.271 11.8698 213.532C12.1198 213.74 12.3854 213.881 12.6615 213.949C12.9271 214.021 13.3073 214.053 13.8073 214.053H17.8281V215.344H10.1615Z" fill="black"/>
<path d="M9.99481 203.979C9.99481 203.438 10.1198 202.917 10.3698 202.417C10.6198 201.906 10.9531 201.51 11.3698 201.229C11.7448 200.979 12.1979 200.813 12.724 200.729C13.0729 200.646 13.6354 200.604 14.4115 200.604V206.229C15.1927 206.203 15.8177 206.021 16.2865 205.688C16.7448 205.344 16.974 204.807 16.974 204.083C16.974 203.406 16.7552 202.865 16.3073 202.458C16.0573 202.24 15.7604 202.078 15.4115 201.979V200.708C15.7031 200.75 16.0261 200.87 16.3698 201.063C16.7188 201.245 16.9948 201.453 17.2031 201.688C17.5938 202.078 17.8542 202.557 17.9948 203.125C18.0625 203.448 18.099 203.802 18.099 204.188C18.099 205.146 17.7552 205.958 17.0573 206.625C16.3646 207.281 15.3906 207.604 14.1406 207.604C12.9063 207.604 11.9063 207.271 11.1406 206.604C10.3802 205.938 9.99481 205.063 9.99481 203.979ZM13.3906 201.938C12.8229 201.979 12.3698 202.099 12.0365 202.292C11.4271 202.656 11.1198 203.245 11.1198 204.063C11.1198 204.661 11.3386 205.161 11.7656 205.563C12.1823 205.953 12.724 206.161 13.3906 206.188V201.938Z" fill="black"/>
<path d="M10.1615 199.031V197.801H11.2448C10.8021 197.442 10.4844 197.062 10.2865 196.656C10.0938 196.239 9.99481 195.791 9.99481 195.301C9.99481 194.208 10.3698 193.468 11.1198 193.093C11.5365 192.885 12.1354 192.781 12.9115 192.781H17.8281V194.072H12.9948C12.5261 194.072 12.1511 194.145 11.8698 194.281C11.3854 194.52 11.1406 194.937 11.1406 195.531C11.1406 195.838 11.1771 196.088 11.2448 196.281C11.3438 196.645 11.5521 196.958 11.8698 197.218C12.1198 197.426 12.3854 197.567 12.6615 197.635C12.9271 197.708 13.3073 197.739 13.8073 197.739H17.8281V199.031H10.1615Z" fill="black"/>
<path d="M8.01562 190.603V189.311H10.1615V188.082H11.2031V189.311H16.224C16.4896 189.311 16.6615 189.223 16.7448 189.04C16.8021 188.931 16.8281 188.764 16.8281 188.54C16.8281 188.473 16.8281 188.405 16.8281 188.332C16.8281 188.264 16.8229 188.181 16.8073 188.082H17.8281C17.8698 188.238 17.8958 188.395 17.9115 188.561C17.9375 188.717 17.9531 188.884 17.9531 189.061C17.9531 189.66 17.8021 190.072 17.4948 190.29C17.1771 190.499 16.776 190.603 16.2865 190.603H11.2031V191.645H10.1615V190.603H8.01562Z" fill="black"/>
<path d="M119.984 6.95312C121.578 6.95312 122.818 7.38021 123.693 8.22396C124.578 9.07292 125.073 10.0313 125.172 11.099H123.505C123.307 10.2813 122.927 9.63542 122.359 9.16146C121.802 8.69271 121.016 8.45313 120.005 8.45313C118.755 8.45313 117.745 8.89063 116.984 9.76563C116.219 10.6406 115.839 11.9844 115.839 13.7865C115.839 15.2604 116.177 16.4531 116.859 17.3698C117.552 18.2865 118.589 18.7448 119.964 18.7448C121.224 18.7448 122.182 18.2656 122.839 17.3073C123.182 16.7969 123.448 16.1198 123.63 15.2865H125.297C125.141 16.6198 124.651 17.7396 123.818 18.6406C122.818 19.724 121.464 20.2656 119.755 20.2656C118.281 20.2656 117.052 19.8229 116.068 18.9323C114.745 17.7552 114.089 15.9427 114.089 13.4948C114.089 11.6198 114.578 10.0938 115.568 8.91146C116.635 7.60937 118.109 6.95312 119.984 6.95312Z" fill="black"/>
<path d="M127.215 7.30728H128.757V19.9323H127.215V7.30728Z" fill="black"/>
<path d="M134.73 18.9323C135.756 18.9323 136.459 18.5469 136.834 17.7656C137.219 16.9896 137.417 16.1302 137.417 15.1823C137.417 14.3229 137.277 13.6198 137 13.0781C136.553 12.2344 135.803 11.8073 134.75 11.8073C133.803 11.8073 133.115 12.1719 132.688 12.8906C132.256 13.6146 132.042 14.4896 132.042 15.5156C132.042 16.4896 132.256 17.3021 132.688 17.9531C133.115 18.6094 133.797 18.9323 134.73 18.9323ZM134.792 10.4531C135.969 10.4531 136.969 10.849 137.792 11.6406C138.61 12.4323 139.021 13.599 139.021 15.1406C139.021 16.6302 138.657 17.8594 137.938 18.8281C137.214 19.7865 136.094 20.2656 134.584 20.2656C133.318 20.2656 132.313 19.8438 131.563 18.9948C130.813 18.1354 130.438 16.9844 130.438 15.5365C130.438 13.9844 130.823 12.7448 131.605 11.8281C132.396 10.9115 133.459 10.4531 134.792 10.4531Z" fill="black"/>
<path d="M141.789 17.0364C141.83 17.5677 141.955 17.9635 142.164 18.2239C142.549 18.7239 143.231 18.9739 144.205 18.9739C144.773 18.9739 145.273 18.8489 145.705 18.5989C146.148 18.3489 146.372 17.9687 146.372 17.4531C146.372 17.0521 146.19 16.7448 145.83 16.5364C145.606 16.4114 145.169 16.2656 144.518 16.0989L143.289 15.8073C142.497 15.6146 141.914 15.3906 141.539 15.1406C140.883 14.7239 140.56 14.151 140.56 13.4114C140.56 12.5364 140.872 11.8385 141.497 11.3073C142.122 10.7656 142.961 10.4948 144.018 10.4948C145.403 10.4948 146.403 10.901 147.018 11.7031C147.403 12.2187 147.591 12.776 147.58 13.3698H146.122C146.091 13.026 145.966 12.7031 145.747 12.4114C145.398 12.0104 144.789 11.8073 143.914 11.8073C143.315 11.8073 142.862 11.9219 142.56 12.1406C142.268 12.3646 142.122 12.6614 142.122 13.0364C142.122 13.4427 142.32 13.7604 142.726 13.9948C142.945 14.1354 143.278 14.2604 143.726 14.3698L144.747 14.6198C145.856 14.8854 146.606 15.151 146.997 15.4114C147.591 15.8021 147.893 16.4219 147.893 17.2656C147.893 18.0885 147.58 18.7969 146.955 19.3906C146.33 19.9844 145.383 20.2864 144.122 20.2864C142.747 20.2864 141.773 19.9739 141.205 19.3489C140.633 18.7239 140.33 17.9531 140.289 17.0364H141.789Z" fill="black"/>
<path d="M153.485 10.5156C154.151 10.5156 154.787 10.6719 155.401 10.974C156.011 11.2813 156.474 11.6771 156.797 12.1615C157.099 12.6354 157.307 13.1771 157.422 13.7865C157.505 14.2188 157.547 14.901 157.547 15.8281H150.797C150.823 16.7604 151.047 17.5104 151.464 18.0781C151.88 18.6354 152.516 18.9115 153.38 18.9115C154.182 18.9115 154.828 18.651 155.318 18.1198C155.594 17.8177 155.787 17.4531 155.901 17.0365H157.422C157.38 17.3854 157.245 17.7656 157.026 18.1823C156.802 18.599 156.547 18.9427 156.255 19.2031C155.797 19.6615 155.219 19.9635 154.526 20.1198C154.151 20.2135 153.724 20.2656 153.255 20.2656C152.099 20.2656 151.13 19.849 150.339 19.0156C149.547 18.1823 149.151 17.0156 149.151 15.5156C149.151 14.0313 149.547 12.8281 150.339 11.9115C151.141 10.9844 152.193 10.5156 153.485 10.5156ZM155.964 14.599C155.891 13.9323 155.745 13.401 155.526 12.9948C155.094 12.2448 154.386 11.8698 153.401 11.8698C152.693 11.8698 152.094 12.1302 151.61 12.6406C151.12 13.1563 150.865 13.8073 150.839 14.599H155.964Z" fill="black"/>
<path d="M160.419 15.4323C160.419 16.4219 160.627 17.2448 161.044 17.9115C161.471 18.5781 162.148 18.9115 163.065 18.9115C163.783 18.9115 164.377 18.6094 164.835 17.9948C165.294 17.3698 165.523 16.4844 165.523 15.3281C165.523 14.1771 165.283 13.3229 164.815 12.7656C164.341 12.1979 163.752 11.9115 163.044 11.9115C162.262 11.9115 161.632 12.2135 161.148 12.8073C160.658 13.4063 160.419 14.2813 160.419 15.4323ZM162.752 10.5573C163.46 10.5573 164.049 10.7135 164.523 11.0156C164.799 11.1823 165.111 11.4844 165.46 11.9115V7.26562H166.96V19.9323H165.565V18.6615C165.2 19.2188 164.773 19.6302 164.273 19.8906C163.783 20.1406 163.221 20.2656 162.585 20.2656C161.554 20.2656 160.669 19.8385 159.919 18.974C159.169 18.099 158.794 16.9479 158.794 15.5156C158.794 14.1823 159.132 13.026 159.815 12.0365C160.507 11.0521 161.486 10.5573 162.752 10.5573Z" fill="black"/>
<path d="M179.18 18.4739C179.764 18.4739 180.243 18.4114 180.618 18.2864C181.269 18.0677 181.81 17.6354 182.243 16.9948C182.576 16.4948 182.816 15.8437 182.972 15.0364C183.055 14.5677 183.097 14.1302 183.097 13.7239C183.097 12.1562 182.784 10.9427 182.159 10.0781C181.545 9.20311 180.545 8.76561 179.159 8.76561H176.139V18.4739H179.18ZM174.409 7.30728H179.534C181.269 7.30728 182.607 7.92707 183.555 9.16145C184.415 10.276 184.847 11.6979 184.847 13.4323C184.847 14.7656 184.597 15.9739 184.097 17.0573C183.206 18.9739 181.68 19.9323 179.514 19.9323H174.409V7.30728Z" fill="black"/>
<path d="M190.661 10.5156C191.328 10.5156 191.963 10.6719 192.578 10.974C193.187 11.2813 193.651 11.6771 193.974 12.1615C194.276 12.6354 194.484 13.1771 194.599 13.7865C194.682 14.2188 194.724 14.901 194.724 15.8281H187.974C188 16.7604 188.224 17.5104 188.64 18.0781C189.057 18.6354 189.692 18.9115 190.557 18.9115C191.359 18.9115 192.005 18.651 192.494 18.1198C192.771 17.8177 192.963 17.4531 193.078 17.0365H194.599C194.557 17.3854 194.422 17.7656 194.203 18.1823C193.979 18.599 193.724 18.9427 193.432 19.2031C192.974 19.6615 192.396 19.9635 191.703 20.1198C191.328 20.2135 190.901 20.2656 190.432 20.2656C189.276 20.2656 188.307 19.849 187.515 19.0156C186.724 18.1823 186.328 17.0156 186.328 15.5156C186.328 14.0313 186.724 12.8281 187.515 11.9115C188.317 10.9844 189.369 10.5156 190.661 10.5156ZM193.14 14.599C193.067 13.9323 192.922 13.401 192.703 12.9948C192.271 12.2448 191.562 11.8698 190.578 11.8698C189.869 11.8698 189.271 12.1302 188.786 12.6406C188.297 13.1563 188.041 13.8073 188.015 14.599H193.14Z" fill="black"/>
<path d="M197.804 17.4739C197.804 17.9323 197.96 18.2969 198.283 18.5573C198.616 18.8073 199.012 18.9323 199.47 18.9323C200.012 18.9323 200.538 18.8073 201.054 18.5573C201.897 18.1302 202.324 17.4427 202.324 16.4948V15.2448C202.142 15.3698 201.897 15.4739 201.595 15.5573C201.304 15.6302 201.012 15.6823 200.72 15.7239L199.783 15.8489C199.226 15.9219 198.809 16.0364 198.533 16.2031C198.043 16.4687 197.804 16.8906 197.804 17.4739ZM201.554 14.3489C201.913 14.3073 202.158 14.1614 202.283 13.9114C202.335 13.776 202.366 13.5729 202.366 13.3073C202.366 12.7812 202.179 12.401 201.804 12.1614C201.429 11.9271 200.892 11.8073 200.199 11.8073C199.392 11.8073 198.824 12.026 198.491 12.4531C198.293 12.7031 198.168 13.0677 198.116 13.5364H196.679C196.705 12.401 197.074 11.6094 197.783 11.1614C198.491 10.7187 199.309 10.4948 200.241 10.4948C201.324 10.4948 202.199 10.7031 202.866 11.1198C203.543 11.5364 203.887 12.1823 203.887 13.0573V18.3489C203.887 18.5156 203.913 18.651 203.97 18.7448C204.038 18.8437 204.179 18.8906 204.387 18.8906C204.455 18.8906 204.533 18.8854 204.616 18.8698C204.71 18.8594 204.809 18.8437 204.908 18.8281V19.9739C204.658 20.0417 204.47 20.0833 204.345 20.0989C204.22 20.1094 204.054 20.1198 203.845 20.1198C203.304 20.1198 202.913 19.9323 202.679 19.5573C202.554 19.3646 202.46 19.0781 202.408 18.7031C202.085 19.1198 201.627 19.4844 201.033 19.7864C200.449 20.0885 199.804 20.2448 199.095 20.2448C198.246 20.2448 197.554 19.9844 197.012 19.4739C196.47 18.9479 196.199 18.2969 196.199 17.5156C196.199 16.6719 196.46 16.0104 196.991 15.5364C197.533 15.0677 198.231 14.776 199.095 14.6614L201.554 14.3489Z" fill="black"/>
<path d="M206.467 7.30728H208.009V19.9323H206.467V7.30728Z" fill="black"/>
<path d="M220.746 6.95312C222.34 6.95312 223.579 7.38021 224.454 8.22396C225.34 9.07292 225.835 10.0313 225.934 11.099H224.267C224.069 10.2813 223.689 9.63542 223.121 9.16146C222.564 8.69271 221.777 8.45313 220.767 8.45313C219.517 8.45313 218.506 8.89063 217.746 9.76563C216.98 10.6406 216.6 11.9844 216.6 13.7865C216.6 15.2604 216.939 16.4531 217.621 17.3698C218.314 18.2865 219.35 18.7448 220.725 18.7448C221.986 18.7448 222.944 18.2656 223.6 17.3073C223.944 16.7969 224.21 16.1198 224.392 15.2865H226.059C225.902 16.6198 225.413 17.7396 224.579 18.6406C223.579 19.724 222.225 20.2656 220.517 20.2656C219.043 20.2656 217.814 19.8229 216.829 18.9323C215.506 17.7552 214.85 15.9427 214.85 13.4948C214.85 11.6198 215.34 10.0938 216.329 8.91146C217.397 7.60937 218.871 6.95312 220.746 6.95312Z" fill="black"/>
<path d="M231.581 18.9323C232.607 18.9323 233.31 18.5469 233.685 17.7656C234.071 16.9896 234.269 16.1302 234.269 15.1823C234.269 14.3229 234.128 13.6198 233.852 13.0781C233.404 12.2344 232.654 11.8073 231.602 11.8073C230.654 11.8073 229.967 12.1719 229.54 12.8906C229.107 13.6146 228.894 14.4896 228.894 15.5156C228.894 16.4896 229.107 17.3021 229.54 17.9531C229.967 18.6094 230.649 18.9323 231.581 18.9323ZM231.644 10.4531C232.821 10.4531 233.821 10.849 234.644 11.6406C235.461 12.4323 235.873 13.599 235.873 15.1406C235.873 16.6302 235.508 17.8594 234.79 18.8281C234.066 19.7865 232.946 20.2656 231.435 20.2656C230.17 20.2656 229.165 19.8438 228.415 18.9948C227.665 18.1354 227.29 16.9844 227.29 15.5365C227.29 13.9844 227.675 12.7448 228.456 11.8281C229.248 10.9115 230.31 10.4531 231.644 10.4531Z" fill="black"/>
<path d="M239.265 10.724V16.8281C239.265 17.3021 239.333 17.6927 239.474 17.9948C239.75 18.5365 240.265 18.8073 241.015 18.8073C242.099 18.8073 242.833 18.3281 243.224 17.3698C243.432 16.8594 243.536 16.1511 243.536 15.2448V10.724H245.078V19.9323H243.62L243.64 18.5781C243.442 18.9271 243.192 19.2188 242.89 19.4531C242.307 19.9375 241.588 20.1823 240.745 20.1823C239.437 20.1823 238.541 19.7448 238.057 18.8698C237.807 18.4011 237.682 17.7656 237.682 16.974V10.724H239.265Z" fill="black"/>
<path d="M247.491 10.724H248.97V12.0365C249.397 11.4948 249.856 11.1094 250.345 10.8698C250.845 10.6354 251.387 10.5156 251.97 10.5156C253.272 10.5156 254.163 10.974 254.637 11.8906C254.887 12.3906 255.012 13.1094 255.012 14.0365V19.9323H253.429V14.1198C253.429 13.5677 253.345 13.1146 253.179 12.7656C252.897 12.1979 252.397 11.9115 251.679 11.9115C251.314 11.9115 251.017 11.9479 250.783 12.0156C250.366 12.1406 249.991 12.401 249.658 12.7865C249.408 13.0938 249.241 13.4063 249.158 13.724C249.085 14.0469 249.054 14.5104 249.054 15.1198V19.9323H247.491V10.724Z" fill="black"/>
<path d="M257.592 8.16147H259.154V10.724H260.634V11.9948H259.154V17.9948C259.154 18.3177 259.264 18.5313 259.488 18.6406C259.613 18.7136 259.811 18.7448 260.092 18.7448C260.16 18.7448 260.238 18.7448 260.321 18.7448C260.415 18.7344 260.519 18.7188 260.634 18.7031V19.9323C260.451 19.9844 260.264 20.0208 260.071 20.0365C259.889 20.0625 259.68 20.0781 259.446 20.0781C258.722 20.0781 258.227 19.9011 257.967 19.5365C257.717 19.1615 257.592 18.6771 257.592 18.0781V11.9948H256.342V10.724H257.592V8.16147Z" fill="black"/>
<path d="M266.955 7.26562H268.455V11.849C268.788 11.4063 269.189 11.0729 269.663 10.849C270.132 10.6146 270.648 10.4948 271.205 10.4948C272.34 10.4948 273.267 10.8906 273.976 11.6823C274.695 12.4635 275.059 13.6198 275.059 15.1615C275.059 16.6094 274.705 17.8177 273.997 18.7865C273.288 19.7448 272.309 20.224 271.059 20.224C270.361 20.224 269.773 20.0573 269.288 19.724C269.007 19.5156 268.705 19.1927 268.372 18.7448V19.9323H266.955V7.26562ZM270.976 18.849C271.809 18.849 272.434 18.526 272.851 17.8698C273.267 17.2031 273.476 16.3229 273.476 15.224C273.476 14.2656 273.267 13.4688 272.851 12.8281C272.434 12.1927 271.82 11.8698 271.017 11.8698C270.309 11.8698 269.689 12.1354 269.163 12.6615C268.632 13.1771 268.372 14.0313 268.372 15.224C268.372 16.099 268.476 16.8021 268.684 17.3281C269.101 18.3438 269.861 18.849 270.976 18.849Z" fill="black"/>
<path d="M282.597 10.724H284.327C284.103 11.3229 283.618 12.6719 282.868 14.7656C282.295 16.349 281.827 17.6406 281.452 18.6406C280.561 20.9844 279.931 22.4167 279.556 22.9323C279.191 23.4427 278.566 23.7031 277.681 23.7031C277.457 23.7031 277.285 23.6927 277.16 23.6823C277.045 23.6667 276.91 23.6302 276.743 23.5781V22.1823C277.004 22.25 277.191 22.2917 277.306 22.3073C277.431 22.3333 277.54 22.349 277.639 22.349C277.931 22.349 278.139 22.2969 278.264 22.2031C278.399 22.1042 278.519 21.9844 278.618 21.849C278.644 21.8073 278.743 21.5677 278.91 21.1406C279.087 20.724 279.222 20.4115 279.306 20.2031L275.91 10.724H277.66L280.118 18.224L282.597 10.724Z" fill="black"/>
<path d="M296.079 6.95312C297.673 6.95312 298.912 7.38021 299.787 8.22396C300.673 9.07292 301.167 10.0313 301.266 11.099H299.6C299.402 10.2813 299.022 9.63542 298.454 9.16146C297.897 8.69271 297.11 8.45313 296.1 8.45313C294.85 8.45313 293.839 8.89063 293.079 9.76563C292.313 10.6406 291.933 11.9844 291.933 13.7865C291.933 15.2604 292.272 16.4531 292.954 17.3698C293.647 18.2865 294.683 18.7448 296.058 18.7448C297.318 18.7448 298.277 18.2656 298.933 17.3073C299.277 16.7969 299.542 16.1198 299.725 15.2865H301.391C301.235 16.6198 300.746 17.7396 299.912 18.6406C298.912 19.724 297.558 20.2656 295.85 20.2656C294.376 20.2656 293.147 19.8229 292.162 18.9323C290.839 17.7552 290.183 15.9427 290.183 13.4948C290.183 11.6198 290.673 10.0938 291.662 8.91146C292.73 7.60937 294.204 6.95312 296.079 6.95312Z" fill="black"/>
<path d="M306.914 18.9323C307.94 18.9323 308.643 18.5469 309.018 17.7656C309.404 16.9896 309.602 16.1302 309.602 15.1823C309.602 14.3229 309.461 13.6198 309.185 13.0781C308.737 12.2344 307.987 11.8073 306.935 11.8073C305.987 11.8073 305.299 12.1719 304.872 12.8906C304.44 13.6146 304.227 14.4896 304.227 15.5156C304.227 16.4896 304.44 17.3021 304.872 17.9531C305.299 18.6094 305.982 18.9323 306.914 18.9323ZM306.977 10.4531C308.154 10.4531 309.154 10.849 309.977 11.6406C310.794 12.4323 311.206 13.599 311.206 15.1406C311.206 16.6302 310.841 17.8594 310.122 18.8281C309.398 19.7865 308.279 20.2656 306.768 20.2656C305.503 20.2656 304.497 19.8438 303.747 18.9948C302.997 18.1354 302.622 16.9844 302.622 15.5365C302.622 13.9844 303.008 12.7448 303.789 11.8281C304.581 10.9115 305.643 10.4531 306.977 10.4531Z" fill="black"/>
<path d="M313.036 10.724H314.515V12.0365C314.942 11.4948 315.4 11.1094 315.89 10.8698C316.39 10.6354 316.931 10.5156 317.515 10.5156C318.817 10.5156 319.708 10.974 320.181 11.8906C320.431 12.3906 320.556 13.1094 320.556 14.0365V19.9323H318.973V14.1198C318.973 13.5677 318.89 13.1146 318.723 12.7656C318.442 12.1979 317.942 11.9115 317.223 11.9115C316.859 11.9115 316.562 11.9479 316.327 12.0156C315.911 12.1406 315.536 12.401 315.202 12.7865C314.952 13.0938 314.786 13.4063 314.702 13.724C314.629 14.0469 314.598 14.5104 314.598 15.1198V19.9323H313.036V10.724Z" fill="black"/>
<path d="M323.136 8.16147H324.699V10.724H326.178V11.9948H324.699V17.9948C324.699 18.3177 324.808 18.5313 325.032 18.6406C325.157 18.7136 325.355 18.7448 325.636 18.7448C325.704 18.7448 325.782 18.7448 325.866 18.7448C325.959 18.7344 326.063 18.7188 326.178 18.7031V19.9323C325.996 19.9844 325.808 20.0208 325.616 20.0365C325.433 20.0625 325.225 20.0781 324.991 20.0781C324.267 20.0781 323.772 19.9011 323.511 19.5365C323.261 19.1615 323.136 18.6771 323.136 18.0781V11.9948H321.886V10.724H323.136V8.16147Z" fill="black"/>
<path d="M327.714 10.7656H329.297V19.9323H327.714V10.7656ZM327.714 7.30728H329.297V9.05728H327.714V7.30728Z" fill="black"/>
<path d="M331.624 10.724H333.103V12.0365C333.53 11.4948 333.989 11.1094 334.478 10.8698C334.978 10.6354 335.52 10.5156 336.103 10.5156C337.405 10.5156 338.296 10.974 338.77 11.8906C339.02 12.3906 339.145 13.1094 339.145 14.0365V19.9323H337.561V14.1198C337.561 13.5677 337.478 13.1146 337.311 12.7656C337.03 12.1979 336.53 11.9115 335.811 11.9115C335.447 11.9115 335.15 11.9479 334.916 12.0156C334.499 12.1406 334.124 12.401 333.791 12.7865C333.541 13.0938 333.374 13.4063 333.291 13.724C333.218 14.0469 333.186 14.5104 333.186 15.1198V19.9323H331.624V10.724Z" fill="black"/>
<path d="M345.246 10.5156C345.912 10.5156 346.548 10.6719 347.162 10.974C347.772 11.2813 348.235 11.6771 348.558 12.1615C348.86 12.6354 349.068 13.1771 349.183 13.7865C349.266 14.2188 349.308 14.901 349.308 15.8281H342.558C342.584 16.7604 342.808 17.5104 343.225 18.0781C343.641 18.6354 344.277 18.9115 345.141 18.9115C345.943 18.9115 346.589 18.651 347.079 18.1198C347.355 17.8177 347.548 17.4531 347.662 17.0365H349.183C349.141 17.3854 349.006 17.7656 348.787 18.1823C348.563 18.599 348.308 18.9427 348.016 19.2031C347.558 19.6615 346.98 19.9635 346.287 20.1198C345.912 20.2135 345.485 20.2656 345.016 20.2656C343.86 20.2656 342.891 19.849 342.1 19.0156C341.308 18.1823 340.912 17.0156 340.912 15.5156C340.912 14.0313 341.308 12.8281 342.1 11.9115C342.902 10.9844 343.954 10.5156 345.246 10.5156ZM347.725 14.599C347.652 13.9323 347.506 13.401 347.287 12.9948C346.855 12.2448 346.147 11.8698 345.162 11.8698C344.454 11.8698 343.855 12.1302 343.371 12.6406C342.881 13.1563 342.626 13.8073 342.6 14.599H347.725Z" fill="black"/>
<path d="M351.201 10.724H352.68V12.0365C353.107 11.4948 353.565 11.1094 354.055 10.8698C354.555 10.6354 355.096 10.5156 355.68 10.5156C356.982 10.5156 357.872 10.974 358.346 11.8906C358.596 12.3906 358.721 13.1094 358.721 14.0365V19.9323H357.138V14.1198C357.138 13.5677 357.055 13.1146 356.888 12.7656C356.607 12.1979 356.107 11.9115 355.388 11.9115C355.023 11.9115 354.727 11.9479 354.492 12.0156C354.076 12.1406 353.701 12.401 353.367 12.7865C353.117 13.0938 352.951 13.4063 352.867 13.724C352.794 14.0469 352.763 14.5104 352.763 15.1198V19.9323H351.201V10.724Z" fill="black"/>
<path d="M361.301 8.16147H362.864V10.724H364.343V11.9948H362.864V17.9948C362.864 18.3177 362.973 18.5313 363.197 18.6406C363.322 18.7136 363.52 18.7448 363.801 18.7448C363.869 18.7448 363.947 18.7448 364.03 18.7448C364.124 18.7344 364.228 18.7188 364.343 18.7031V19.9323C364.161 19.9844 363.973 20.0208 363.78 20.0365C363.598 20.0625 363.39 20.0781 363.155 20.0781C362.431 20.0781 361.937 19.9011 361.676 19.5365C361.426 19.1615 361.301 18.6771 361.301 18.0781V11.9948H360.051V10.724H361.301V8.16147Z" fill="black"/>
</g>
<defs>
<clipPath id="clip0_3_640">
<rect width="700" height="449.333" fill="white"/>
</clipPath>
</defs>
</svg>
